G04 #@! TF.GenerationSoftware,KiCad,Pcbnew,(5.1.9-0-10_14)*
G04 #@! TF.CreationDate,2021-04-20T22:11:40+01:00*
G04 #@! TF.ProjectId,TinyTX4-sma,54696e79-5458-4342-9d73-6d612e6b6963,rev?*
G04 #@! TF.SameCoordinates,Original*
G04 #@! TF.FileFunction,Legend,Bot*
G04 #@! TF.FilePolarity,Positive*
%FSLAX46Y46*%
G04 Gerber Fmt 4.6, Leading zero omitted, Abs format (unit mm)*
G04 Created by KiCad (PCBNEW (5.1.9-0-10_14)) date 2021-04-20 22:11:40*
%MOMM*%
%LPD*%
G01*
G04 APERTURE LIST*
%ADD10C,0.100000*%
G04 APERTURE END LIST*
D10*
X37181285Y-37683714D02*
X37717000Y-37683714D01*
X37824142Y-37648000D01*
X37895571Y-37576571D01*
X37931285Y-37469428D01*
X37931285Y-37398000D01*
X37931285Y-38398000D02*
X37931285Y-38040857D01*
X37181285Y-38040857D01*
X37859857Y-39076571D02*
X37895571Y-39040857D01*
X37931285Y-38933714D01*
X37931285Y-38862285D01*
X37895571Y-38755142D01*
X37824142Y-38683714D01*
X37752714Y-38648000D01*
X37609857Y-38612285D01*
X37502714Y-38612285D01*
X37359857Y-38648000D01*
X37288428Y-38683714D01*
X37217000Y-38755142D01*
X37181285Y-38862285D01*
X37181285Y-38933714D01*
X37217000Y-39040857D01*
X37252714Y-39076571D01*
X37181285Y-39612285D02*
X37717000Y-39612285D01*
X37824142Y-39576571D01*
X37895571Y-39505142D01*
X37931285Y-39398000D01*
X37931285Y-39326571D01*
X37931285Y-40326571D02*
X37931285Y-39969428D01*
X37181285Y-39969428D01*
X37859857Y-41005142D02*
X37895571Y-40969428D01*
X37931285Y-40862285D01*
X37931285Y-40790857D01*
X37895571Y-40683714D01*
X37824142Y-40612285D01*
X37752714Y-40576571D01*
X37609857Y-40540857D01*
X37502714Y-40540857D01*
X37359857Y-40576571D01*
X37288428Y-40612285D01*
X37217000Y-40683714D01*
X37181285Y-40790857D01*
X37181285Y-40862285D01*
X37217000Y-40969428D01*
X37252714Y-41005142D01*
X37181285Y-41540857D02*
X37717000Y-41540857D01*
X37824142Y-41505142D01*
X37895571Y-41433714D01*
X37931285Y-41326571D01*
X37931285Y-41255142D01*
X37931285Y-42255142D02*
X37931285Y-41898000D01*
X37181285Y-41898000D01*
X37859857Y-42933714D02*
X37895571Y-42898000D01*
X37931285Y-42790857D01*
X37931285Y-42719428D01*
X37895571Y-42612285D01*
X37824142Y-42540857D01*
X37752714Y-42505142D01*
X37609857Y-42469428D01*
X37502714Y-42469428D01*
X37359857Y-42505142D01*
X37288428Y-42540857D01*
X37217000Y-42612285D01*
X37181285Y-42719428D01*
X37181285Y-42790857D01*
X37217000Y-42898000D01*
X37252714Y-42933714D01*
X37181285Y-43469428D02*
X37717000Y-43469428D01*
X37824142Y-43433714D01*
X37895571Y-43362285D01*
X37931285Y-43255142D01*
X37931285Y-43183714D01*
X37931285Y-44183714D02*
X37931285Y-43826571D01*
X37181285Y-43826571D01*
X37859857Y-44862285D02*
X37895571Y-44826571D01*
X37931285Y-44719428D01*
X37931285Y-44648000D01*
X37895571Y-44540857D01*
X37824142Y-44469428D01*
X37752714Y-44433714D01*
X37609857Y-44398000D01*
X37502714Y-44398000D01*
X37359857Y-44433714D01*
X37288428Y-44469428D01*
X37217000Y-44540857D01*
X37181285Y-44648000D01*
X37181285Y-44719428D01*
X37217000Y-44826571D01*
X37252714Y-44862285D01*
M02*
