G04 #@! TF.GenerationSoftware,KiCad,Pcbnew,(5.1.9-0-10_14)*
G04 #@! TF.CreationDate,2021-04-20T22:11:40+01:00*
G04 #@! TF.ProjectId,TinyTX4-sma,54696e79-5458-4342-9d73-6d612e6b6963,rev?*
G04 #@! TF.SameCoordinates,Original*
G04 #@! TF.FileFunction,Copper,L2,Bot*
G04 #@! TF.FilePolarity,Positive*
%FSLAX46Y46*%
G04 Gerber Fmt 4.6, Leading zero omitted, Abs format (unit mm)*
G04 Created by KiCad (PCBNEW (5.1.9-0-10_14)) date 2021-04-20 22:11:40*
%MOMM*%
%LPD*%
G01*
G04 APERTURE LIST*
G04 #@! TA.AperFunction,ComponentPad*
%ADD10C,2.400000*%
G04 #@! TD*
G04 #@! TA.AperFunction,ComponentPad*
%ADD11O,1.700000X1.700000*%
G04 #@! TD*
G04 #@! TA.AperFunction,ComponentPad*
%ADD12R,1.700000X1.700000*%
G04 #@! TD*
G04 #@! TA.AperFunction,ComponentPad*
%ADD13R,2.499360X2.499360*%
G04 #@! TD*
G04 #@! TA.AperFunction,ComponentPad*
%ADD14C,2.499360*%
G04 #@! TD*
G04 #@! TA.AperFunction,ComponentPad*
%ADD15C,1.600000*%
G04 #@! TD*
G04 #@! TA.AperFunction,ComponentPad*
%ADD16O,1.500000X3.000000*%
G04 #@! TD*
G04 #@! TA.AperFunction,ViaPad*
%ADD17C,0.800000*%
G04 #@! TD*
G04 #@! TA.AperFunction,ViaPad*
%ADD18C,0.600000*%
G04 #@! TD*
G04 #@! TA.AperFunction,Conductor*
%ADD19C,0.250000*%
G04 #@! TD*
G04 #@! TA.AperFunction,Conductor*
%ADD20C,0.254000*%
G04 #@! TD*
G04 #@! TA.AperFunction,Conductor*
%ADD21C,0.100000*%
G04 #@! TD*
G04 APERTURE END LIST*
D10*
X36545520Y-58643520D03*
X31465520Y-58643520D03*
X36545520Y-53563520D03*
X31465520Y-53563520D03*
X34005520Y-56103520D03*
D11*
X25654000Y-58420000D03*
X23114000Y-58420000D03*
D12*
X20574000Y-58420000D03*
D13*
X35285680Y-32517080D03*
D14*
X35285680Y-28707080D03*
D15*
X16440320Y-22977120D03*
X18980320Y-22977120D03*
X21520320Y-22977120D03*
X24060320Y-22977120D03*
X26600320Y-22977120D03*
X29140320Y-22977120D03*
X31680320Y-22977120D03*
X34220320Y-22977120D03*
X16440320Y-20170400D03*
X18980320Y-20170400D03*
X21520320Y-20170400D03*
X24060320Y-20170400D03*
X26600320Y-20170400D03*
X29140320Y-20170400D03*
X31680320Y-20170400D03*
X34220320Y-20170400D03*
D16*
X16443960Y-17292320D03*
X18983960Y-17292320D03*
X21523960Y-17292320D03*
X24063960Y-17292320D03*
X26603960Y-17292320D03*
X29143960Y-17292320D03*
X31683960Y-17292320D03*
X34223960Y-17292320D03*
D17*
X33157160Y-43891200D03*
X22448495Y-32231735D03*
X33157160Y-41915080D03*
X21678434Y-31593749D03*
X19847560Y-31028640D03*
X33414665Y-39843781D03*
X33223200Y-37957760D03*
X22445869Y-29394515D03*
X20680680Y-29662120D03*
X28427680Y-30246320D03*
X21569680Y-35961320D03*
X21437600Y-44836080D03*
X26370280Y-40365680D03*
X28869640Y-45430440D03*
X36413440Y-17332960D03*
X15494000Y-56388000D03*
X14859000Y-43434000D03*
X21590000Y-25400000D03*
X16383000Y-25273000D03*
X37084000Y-25400000D03*
X26797000Y-53848000D03*
X37846000Y-47498000D03*
X33210500Y-51498500D03*
X22098000Y-53848000D03*
X15494000Y-59182000D03*
X14986000Y-14986000D03*
X22860000Y-14986000D03*
D18*
X38354000Y-50038000D03*
D17*
X18288000Y-30480000D03*
X19288760Y-34630360D03*
X16047720Y-31125160D03*
D19*
X33157160Y-43891200D02*
X32591475Y-43891200D01*
X32591475Y-43891200D02*
X22448495Y-33748220D01*
X22448495Y-33748220D02*
X22448495Y-32797420D01*
X22448495Y-32797420D02*
X22448495Y-32231735D01*
X22078433Y-31193750D02*
X21678434Y-31593749D01*
X33157160Y-41915080D02*
X22435830Y-31193750D01*
X22435830Y-31193750D02*
X22078433Y-31193750D01*
X24314627Y-30743743D02*
X33414665Y-39843781D01*
X21170541Y-31028640D02*
X21455442Y-30743740D01*
X19847560Y-31028640D02*
X21170541Y-31028640D01*
X21455442Y-30743740D02*
X24314627Y-30743743D01*
X33223200Y-37957760D02*
X24659955Y-29394515D01*
X24659955Y-29394515D02*
X22445869Y-29394515D01*
X17373600Y-52939760D02*
X17373600Y-55219600D01*
X17373600Y-55219600D02*
X20574000Y-58420000D01*
X19288760Y-51024600D02*
X17373600Y-52939760D01*
X19288760Y-34630360D02*
X19288760Y-51024600D01*
X18180321Y-20970399D02*
X18980320Y-20170400D01*
X17565321Y-21585399D02*
X18180321Y-20970399D01*
X17565321Y-29617719D02*
X17565321Y-21585399D01*
X16032480Y-31150560D02*
X17565321Y-29617719D01*
D20*
X38221001Y-52795779D02*
X38108356Y-52585034D01*
X37823500Y-52465146D01*
X36725125Y-53563520D01*
X37823500Y-54661894D01*
X38108356Y-54542006D01*
X38221001Y-54315337D01*
X38221001Y-57875779D01*
X38108356Y-57665034D01*
X37823500Y-57545146D01*
X36725125Y-58643520D01*
X37823500Y-59741894D01*
X38108356Y-59622006D01*
X38221001Y-59395337D01*
X38221001Y-60340000D01*
X37257805Y-60340000D01*
X37301353Y-60325366D01*
X37524006Y-60206356D01*
X37643894Y-59921500D01*
X36545520Y-58823125D01*
X35447146Y-59921500D01*
X35567034Y-60206356D01*
X35835959Y-60340000D01*
X32177805Y-60340000D01*
X32221353Y-60325366D01*
X32444006Y-60206356D01*
X32563894Y-59921500D01*
X31465520Y-58823125D01*
X30367146Y-59921500D01*
X30487034Y-60206356D01*
X30755959Y-60340000D01*
X14541000Y-60340000D01*
X14541000Y-52939760D01*
X16609924Y-52939760D01*
X16613600Y-52977083D01*
X16613601Y-55182268D01*
X16609924Y-55219600D01*
X16624598Y-55368585D01*
X16668054Y-55511846D01*
X16738626Y-55643876D01*
X16809801Y-55730602D01*
X16833600Y-55759601D01*
X16862598Y-55783399D01*
X19085928Y-58006730D01*
X19085928Y-59270000D01*
X19098188Y-59394482D01*
X19134498Y-59514180D01*
X19193463Y-59624494D01*
X19272815Y-59721185D01*
X19369506Y-59800537D01*
X19479820Y-59859502D01*
X19599518Y-59895812D01*
X19724000Y-59908072D01*
X21424000Y-59908072D01*
X21548482Y-59895812D01*
X21668180Y-59859502D01*
X21778494Y-59800537D01*
X21875185Y-59721185D01*
X21954537Y-59624494D01*
X22013502Y-59514180D01*
X22035513Y-59441620D01*
X22167368Y-59573475D01*
X22410589Y-59735990D01*
X22680842Y-59847932D01*
X22967740Y-59905000D01*
X23260260Y-59905000D01*
X23547158Y-59847932D01*
X23817411Y-59735990D01*
X24060632Y-59573475D01*
X24267475Y-59366632D01*
X24389195Y-59184466D01*
X24458822Y-59301355D01*
X24653731Y-59517588D01*
X24887080Y-59691641D01*
X25149901Y-59816825D01*
X25297110Y-59861476D01*
X25527000Y-59740155D01*
X25527000Y-58547000D01*
X25781000Y-58547000D01*
X25781000Y-59740155D01*
X26010890Y-59861476D01*
X26158099Y-59816825D01*
X26420920Y-59691641D01*
X26654269Y-59517588D01*
X26849178Y-59301355D01*
X26998157Y-59051252D01*
X27095481Y-58776891D01*
X27054180Y-58698204D01*
X29622453Y-58698204D01*
X29668535Y-59056718D01*
X29783674Y-59399353D01*
X29902684Y-59622006D01*
X30187540Y-59741894D01*
X31285915Y-58643520D01*
X30187540Y-57545146D01*
X29902684Y-57665034D01*
X29741821Y-57988730D01*
X29647198Y-58337589D01*
X29622453Y-58698204D01*
X27054180Y-58698204D01*
X26974814Y-58547000D01*
X25781000Y-58547000D01*
X25527000Y-58547000D01*
X25507000Y-58547000D01*
X25507000Y-58293000D01*
X25527000Y-58293000D01*
X25527000Y-57099845D01*
X25781000Y-57099845D01*
X25781000Y-58293000D01*
X26974814Y-58293000D01*
X27095481Y-58063109D01*
X26998157Y-57788748D01*
X26849178Y-57538645D01*
X26654269Y-57322412D01*
X26420920Y-57148359D01*
X26158099Y-57023175D01*
X26010890Y-56978524D01*
X25781000Y-57099845D01*
X25527000Y-57099845D01*
X25297110Y-56978524D01*
X25149901Y-57023175D01*
X24887080Y-57148359D01*
X24653731Y-57322412D01*
X24458822Y-57538645D01*
X24389195Y-57655534D01*
X24267475Y-57473368D01*
X24060632Y-57266525D01*
X23817411Y-57104010D01*
X23547158Y-56992068D01*
X23260260Y-56935000D01*
X22967740Y-56935000D01*
X22680842Y-56992068D01*
X22410589Y-57104010D01*
X22167368Y-57266525D01*
X22035513Y-57398380D01*
X22013502Y-57325820D01*
X21954537Y-57215506D01*
X21875185Y-57118815D01*
X21778494Y-57039463D01*
X21668180Y-56980498D01*
X21548482Y-56944188D01*
X21424000Y-56931928D01*
X20160730Y-56931928D01*
X18133600Y-54904799D01*
X18133600Y-54841500D01*
X30367146Y-54841500D01*
X30487034Y-55126356D01*
X30810730Y-55287219D01*
X31159589Y-55381842D01*
X31520204Y-55406587D01*
X31878718Y-55360505D01*
X32221353Y-55245366D01*
X32444006Y-55126356D01*
X32563893Y-54841501D01*
X32618175Y-54895783D01*
X32580182Y-54933776D01*
X32379364Y-55234321D01*
X32241038Y-55568270D01*
X32170520Y-55922788D01*
X32170520Y-56284252D01*
X32241038Y-56638770D01*
X32379364Y-56972719D01*
X32580182Y-57273264D01*
X32618175Y-57311257D01*
X32563893Y-57365539D01*
X32444006Y-57080684D01*
X32120310Y-56919821D01*
X31771451Y-56825198D01*
X31410836Y-56800453D01*
X31052322Y-56846535D01*
X30709687Y-56961674D01*
X30487034Y-57080684D01*
X30367146Y-57365540D01*
X31465520Y-58463915D01*
X31479662Y-58449772D01*
X31659268Y-58629378D01*
X31645125Y-58643520D01*
X32743500Y-59741894D01*
X33028356Y-59622006D01*
X33189219Y-59298310D01*
X33283842Y-58949451D01*
X33308587Y-58588836D01*
X33262505Y-58230322D01*
X33147366Y-57887687D01*
X33028356Y-57665034D01*
X32743501Y-57545147D01*
X32797783Y-57490865D01*
X32835776Y-57528858D01*
X33136321Y-57729676D01*
X33470270Y-57868002D01*
X33824788Y-57938520D01*
X34186252Y-57938520D01*
X34540770Y-57868002D01*
X34874719Y-57729676D01*
X35175264Y-57528858D01*
X35213257Y-57490865D01*
X35267539Y-57545147D01*
X34982684Y-57665034D01*
X34821821Y-57988730D01*
X34727198Y-58337589D01*
X34702453Y-58698204D01*
X34748535Y-59056718D01*
X34863674Y-59399353D01*
X34982684Y-59622006D01*
X35267540Y-59741894D01*
X36365915Y-58643520D01*
X36351772Y-58629378D01*
X36531378Y-58449772D01*
X36545520Y-58463915D01*
X37643894Y-57365540D01*
X37524006Y-57080684D01*
X37200310Y-56919821D01*
X36851451Y-56825198D01*
X36490836Y-56800453D01*
X36132322Y-56846535D01*
X35789687Y-56961674D01*
X35567034Y-57080684D01*
X35447147Y-57365539D01*
X35392865Y-57311257D01*
X35430858Y-57273264D01*
X35631676Y-56972719D01*
X35770002Y-56638770D01*
X35840520Y-56284252D01*
X35840520Y-55922788D01*
X35770002Y-55568270D01*
X35631676Y-55234321D01*
X35430858Y-54933776D01*
X35392865Y-54895783D01*
X35447147Y-54841501D01*
X35567034Y-55126356D01*
X35890730Y-55287219D01*
X36239589Y-55381842D01*
X36600204Y-55406587D01*
X36958718Y-55360505D01*
X37301353Y-55245366D01*
X37524006Y-55126356D01*
X37643894Y-54841500D01*
X36545520Y-53743125D01*
X36531378Y-53757268D01*
X36351772Y-53577662D01*
X36365915Y-53563520D01*
X35267540Y-52465146D01*
X34982684Y-52585034D01*
X34821821Y-52908730D01*
X34727198Y-53257589D01*
X34702453Y-53618204D01*
X34748535Y-53976718D01*
X34863674Y-54319353D01*
X34982684Y-54542006D01*
X35267539Y-54661893D01*
X35213257Y-54716175D01*
X35175264Y-54678182D01*
X34874719Y-54477364D01*
X34540770Y-54339038D01*
X34186252Y-54268520D01*
X33824788Y-54268520D01*
X33470270Y-54339038D01*
X33136321Y-54477364D01*
X32835776Y-54678182D01*
X32797783Y-54716175D01*
X32743501Y-54661893D01*
X33028356Y-54542006D01*
X33189219Y-54218310D01*
X33283842Y-53869451D01*
X33308587Y-53508836D01*
X33262505Y-53150322D01*
X33147366Y-52807687D01*
X33028356Y-52585034D01*
X32743500Y-52465146D01*
X31645125Y-53563520D01*
X31659268Y-53577662D01*
X31479662Y-53757268D01*
X31465520Y-53743125D01*
X30367146Y-54841500D01*
X18133600Y-54841500D01*
X18133600Y-53618204D01*
X29622453Y-53618204D01*
X29668535Y-53976718D01*
X29783674Y-54319353D01*
X29902684Y-54542006D01*
X30187540Y-54661894D01*
X31285915Y-53563520D01*
X30187540Y-52465146D01*
X29902684Y-52585034D01*
X29741821Y-52908730D01*
X29647198Y-53257589D01*
X29622453Y-53618204D01*
X18133600Y-53618204D01*
X18133600Y-53254561D01*
X19102621Y-52285540D01*
X30367146Y-52285540D01*
X31465520Y-53383915D01*
X32563894Y-52285540D01*
X35447146Y-52285540D01*
X36545520Y-53383915D01*
X37643894Y-52285540D01*
X37524006Y-52000684D01*
X37200310Y-51839821D01*
X36851451Y-51745198D01*
X36490836Y-51720453D01*
X36132322Y-51766535D01*
X35789687Y-51881674D01*
X35567034Y-52000684D01*
X35447146Y-52285540D01*
X32563894Y-52285540D01*
X32444006Y-52000684D01*
X32120310Y-51839821D01*
X31771451Y-51745198D01*
X31410836Y-51720453D01*
X31052322Y-51766535D01*
X30709687Y-51881674D01*
X30487034Y-52000684D01*
X30367146Y-52285540D01*
X19102621Y-52285540D01*
X19799763Y-51588399D01*
X19828761Y-51564601D01*
X19923734Y-51448876D01*
X19994306Y-51316847D01*
X20037763Y-51173586D01*
X20048760Y-51061933D01*
X20048760Y-51061924D01*
X20052436Y-51024601D01*
X20048760Y-50987278D01*
X20048760Y-35334071D01*
X20092697Y-35290134D01*
X20205965Y-35120616D01*
X20283986Y-34932258D01*
X20323760Y-34732299D01*
X20323760Y-34528421D01*
X20283986Y-34328462D01*
X20205965Y-34140104D01*
X20092697Y-33970586D01*
X19948534Y-33826423D01*
X19779016Y-33713155D01*
X19590658Y-33635134D01*
X19390699Y-33595360D01*
X19186821Y-33595360D01*
X18986862Y-33635134D01*
X18798504Y-33713155D01*
X18628986Y-33826423D01*
X18484823Y-33970586D01*
X18371555Y-34140104D01*
X18293534Y-34328462D01*
X18253760Y-34528421D01*
X18253760Y-34732299D01*
X18293534Y-34932258D01*
X18371555Y-35120616D01*
X18484823Y-35290134D01*
X18528760Y-35334071D01*
X18528761Y-50709797D01*
X16862603Y-52375956D01*
X16833599Y-52399759D01*
X16779938Y-52465146D01*
X16738626Y-52515484D01*
X16668055Y-52647513D01*
X16668054Y-52647514D01*
X16624597Y-52790775D01*
X16613600Y-52902428D01*
X16613600Y-52902438D01*
X16609924Y-52939760D01*
X14541000Y-52939760D01*
X14541000Y-20029065D01*
X15005320Y-20029065D01*
X15005320Y-20311735D01*
X15060467Y-20588974D01*
X15168640Y-20850127D01*
X15325683Y-21085159D01*
X15525561Y-21285037D01*
X15760593Y-21442080D01*
X16021746Y-21550253D01*
X16139922Y-21573760D01*
X16021746Y-21597267D01*
X15760593Y-21705440D01*
X15525561Y-21862483D01*
X15325683Y-22062361D01*
X15168640Y-22297393D01*
X15060467Y-22558546D01*
X15005320Y-22835785D01*
X15005320Y-23118455D01*
X15060467Y-23395694D01*
X15168640Y-23656847D01*
X15325683Y-23891879D01*
X15525561Y-24091757D01*
X15760593Y-24248800D01*
X16021746Y-24356973D01*
X16298985Y-24412120D01*
X16581655Y-24412120D01*
X16805322Y-24367629D01*
X16805321Y-29302917D01*
X16018079Y-30090160D01*
X15945781Y-30090160D01*
X15745822Y-30129934D01*
X15557464Y-30207955D01*
X15387946Y-30321223D01*
X15243783Y-30465386D01*
X15130515Y-30634904D01*
X15052494Y-30823262D01*
X15012720Y-31023221D01*
X15012720Y-31227099D01*
X15052494Y-31427058D01*
X15130515Y-31615416D01*
X15243783Y-31784934D01*
X15387946Y-31929097D01*
X15557464Y-32042365D01*
X15745822Y-32120386D01*
X15945781Y-32160160D01*
X16149659Y-32160160D01*
X16349618Y-32120386D01*
X16537976Y-32042365D01*
X16707494Y-31929097D01*
X16851657Y-31784934D01*
X16964925Y-31615416D01*
X17042946Y-31427058D01*
X17082720Y-31227099D01*
X17082720Y-31175121D01*
X17331140Y-30926701D01*
X18812560Y-30926701D01*
X18812560Y-31130579D01*
X18852334Y-31330538D01*
X18930355Y-31518896D01*
X19043623Y-31688414D01*
X19187786Y-31832577D01*
X19357304Y-31945845D01*
X19545662Y-32023866D01*
X19745621Y-32063640D01*
X19949499Y-32063640D01*
X20149458Y-32023866D01*
X20337816Y-31945845D01*
X20507334Y-31832577D01*
X20551271Y-31788640D01*
X20661923Y-31788640D01*
X20683208Y-31895647D01*
X20761229Y-32084005D01*
X20874497Y-32253523D01*
X21018660Y-32397686D01*
X21188178Y-32510954D01*
X21376536Y-32588975D01*
X21485141Y-32610578D01*
X21531290Y-32721991D01*
X21644558Y-32891509D01*
X21688496Y-32935447D01*
X21688495Y-33710897D01*
X21684819Y-33748220D01*
X21688495Y-33785542D01*
X21688495Y-33785552D01*
X21699492Y-33897205D01*
X21733993Y-34010940D01*
X21742949Y-34040466D01*
X21813521Y-34172496D01*
X21853366Y-34221046D01*
X21908494Y-34288221D01*
X21937498Y-34312024D01*
X32027676Y-44402203D01*
X32051474Y-44431201D01*
X32080472Y-44454999D01*
X32167198Y-44526174D01*
X32299228Y-44596746D01*
X32442436Y-44640187D01*
X32497386Y-44695137D01*
X32666904Y-44808405D01*
X32855262Y-44886426D01*
X33055221Y-44926200D01*
X33259099Y-44926200D01*
X33459058Y-44886426D01*
X33647416Y-44808405D01*
X33816934Y-44695137D01*
X33961097Y-44550974D01*
X34074365Y-44381456D01*
X34152386Y-44193098D01*
X34192160Y-43993139D01*
X34192160Y-43789261D01*
X34152386Y-43589302D01*
X34074365Y-43400944D01*
X33961097Y-43231426D01*
X33816934Y-43087263D01*
X33647416Y-42973995D01*
X33476358Y-42903140D01*
X33647416Y-42832285D01*
X33816934Y-42719017D01*
X33961097Y-42574854D01*
X34074365Y-42405336D01*
X34152386Y-42216978D01*
X34192160Y-42017019D01*
X34192160Y-41813141D01*
X34152386Y-41613182D01*
X34074365Y-41424824D01*
X33961097Y-41255306D01*
X33816934Y-41111143D01*
X33647416Y-40997875D01*
X33459058Y-40919854D01*
X33259099Y-40880080D01*
X33196962Y-40880080D01*
X33166596Y-40849714D01*
X33312726Y-40878781D01*
X33516604Y-40878781D01*
X33716563Y-40839007D01*
X33904921Y-40760986D01*
X34074439Y-40647718D01*
X34218602Y-40503555D01*
X34331870Y-40334037D01*
X34409891Y-40145679D01*
X34449665Y-39945720D01*
X34449665Y-39741842D01*
X34409891Y-39541883D01*
X34331870Y-39353525D01*
X34218602Y-39184007D01*
X34074439Y-39039844D01*
X33904921Y-38926576D01*
X33739045Y-38857867D01*
X33882974Y-38761697D01*
X34027137Y-38617534D01*
X34140405Y-38448016D01*
X34218426Y-38259658D01*
X34258200Y-38059699D01*
X34258200Y-37855821D01*
X34218426Y-37655862D01*
X34140405Y-37467504D01*
X34027137Y-37297986D01*
X33882974Y-37153823D01*
X33713456Y-37040555D01*
X33525098Y-36962534D01*
X33325139Y-36922760D01*
X33263002Y-36922760D01*
X27607642Y-31267400D01*
X33397928Y-31267400D01*
X33397928Y-33766760D01*
X33410188Y-33891242D01*
X33446498Y-34010940D01*
X33505463Y-34121254D01*
X33584815Y-34217945D01*
X33681506Y-34297297D01*
X33791820Y-34356262D01*
X33911518Y-34392572D01*
X34036000Y-34404832D01*
X36535360Y-34404832D01*
X36659842Y-34392572D01*
X36779540Y-34356262D01*
X36889854Y-34297297D01*
X36986545Y-34217945D01*
X37065897Y-34121254D01*
X37124862Y-34010940D01*
X37161172Y-33891242D01*
X37173432Y-33766760D01*
X37173432Y-31267400D01*
X37161172Y-31142918D01*
X37124862Y-31023220D01*
X37065897Y-30912906D01*
X36986545Y-30816215D01*
X36889854Y-30736863D01*
X36779540Y-30677898D01*
X36659842Y-30641588D01*
X36535360Y-30629328D01*
X34036000Y-30629328D01*
X33911518Y-30641588D01*
X33791820Y-30677898D01*
X33681506Y-30736863D01*
X33584815Y-30816215D01*
X33505463Y-30912906D01*
X33446498Y-31023220D01*
X33410188Y-31142918D01*
X33397928Y-31267400D01*
X27607642Y-31267400D01*
X26360699Y-30020457D01*
X34151909Y-30020457D01*
X34277784Y-30310395D01*
X34609942Y-30476219D01*
X34968067Y-30574055D01*
X35338399Y-30600145D01*
X35706705Y-30553485D01*
X36058831Y-30435869D01*
X36293576Y-30310395D01*
X36419451Y-30020457D01*
X35285680Y-28886685D01*
X34151909Y-30020457D01*
X26360699Y-30020457D01*
X25223759Y-28883518D01*
X25199956Y-28854514D01*
X25084546Y-28759799D01*
X33392615Y-28759799D01*
X33439275Y-29128105D01*
X33556891Y-29480231D01*
X33682365Y-29714976D01*
X33972303Y-29840851D01*
X35106075Y-28707080D01*
X35465285Y-28707080D01*
X36599057Y-29840851D01*
X36888995Y-29714976D01*
X37054819Y-29382818D01*
X37152655Y-29024693D01*
X37178745Y-28654361D01*
X37132085Y-28286055D01*
X37014469Y-27933929D01*
X36888995Y-27699184D01*
X36599057Y-27573309D01*
X35465285Y-28707080D01*
X35106075Y-28707080D01*
X33972303Y-27573309D01*
X33682365Y-27699184D01*
X33516541Y-28031342D01*
X33418705Y-28389467D01*
X33392615Y-28759799D01*
X25084546Y-28759799D01*
X25084231Y-28759541D01*
X24952202Y-28688969D01*
X24808941Y-28645512D01*
X24697288Y-28634515D01*
X24697277Y-28634515D01*
X24659955Y-28630839D01*
X24622633Y-28634515D01*
X23149580Y-28634515D01*
X23105643Y-28590578D01*
X22936125Y-28477310D01*
X22747767Y-28399289D01*
X22547808Y-28359515D01*
X22343930Y-28359515D01*
X22143971Y-28399289D01*
X21955613Y-28477310D01*
X21786095Y-28590578D01*
X21641932Y-28734741D01*
X21528664Y-28904259D01*
X21450643Y-29092617D01*
X21410869Y-29292576D01*
X21410869Y-29496454D01*
X21450643Y-29696413D01*
X21528664Y-29884771D01*
X21594793Y-29983740D01*
X21492767Y-29983740D01*
X21455443Y-29980064D01*
X21418118Y-29983740D01*
X21418110Y-29983740D01*
X21306457Y-29994737D01*
X21163196Y-30038194D01*
X21065976Y-30090160D01*
X21031167Y-30108766D01*
X20988822Y-30143518D01*
X20915442Y-30203739D01*
X20891645Y-30232736D01*
X20855741Y-30268640D01*
X20551271Y-30268640D01*
X20507334Y-30224703D01*
X20337816Y-30111435D01*
X20149458Y-30033414D01*
X19949499Y-29993640D01*
X19745621Y-29993640D01*
X19545662Y-30033414D01*
X19357304Y-30111435D01*
X19187786Y-30224703D01*
X19043623Y-30368866D01*
X18930355Y-30538384D01*
X18852334Y-30726742D01*
X18812560Y-30926701D01*
X17331140Y-30926701D01*
X18076325Y-30181517D01*
X18105322Y-30157720D01*
X18200295Y-30041995D01*
X18270867Y-29909966D01*
X18314324Y-29766705D01*
X18325321Y-29655052D01*
X18325321Y-29655051D01*
X18328998Y-29617719D01*
X18325321Y-29580386D01*
X18325321Y-27393703D01*
X34151909Y-27393703D01*
X35285680Y-28527475D01*
X36419451Y-27393703D01*
X36293576Y-27103765D01*
X35961418Y-26937941D01*
X35603293Y-26840105D01*
X35232961Y-26814015D01*
X34864655Y-26860675D01*
X34512529Y-26978291D01*
X34277784Y-27103765D01*
X34151909Y-27393703D01*
X18325321Y-27393703D01*
X18325321Y-24259043D01*
X18561746Y-24356973D01*
X18838985Y-24412120D01*
X19121655Y-24412120D01*
X19398894Y-24356973D01*
X19660047Y-24248800D01*
X19895079Y-24091757D01*
X20094957Y-23891879D01*
X20250320Y-23659361D01*
X20405683Y-23891879D01*
X20605561Y-24091757D01*
X20840593Y-24248800D01*
X21101746Y-24356973D01*
X21378985Y-24412120D01*
X21661655Y-24412120D01*
X21938894Y-24356973D01*
X22200047Y-24248800D01*
X22435079Y-24091757D01*
X22634957Y-23891879D01*
X22790320Y-23659361D01*
X22945683Y-23891879D01*
X23145561Y-24091757D01*
X23380593Y-24248800D01*
X23641746Y-24356973D01*
X23918985Y-24412120D01*
X24201655Y-24412120D01*
X24478894Y-24356973D01*
X24740047Y-24248800D01*
X24975079Y-24091757D01*
X25174957Y-23891879D01*
X25330320Y-23659361D01*
X25485683Y-23891879D01*
X25685561Y-24091757D01*
X25920593Y-24248800D01*
X26181746Y-24356973D01*
X26458985Y-24412120D01*
X26741655Y-24412120D01*
X27018894Y-24356973D01*
X27280047Y-24248800D01*
X27515079Y-24091757D01*
X27714957Y-23891879D01*
X27870320Y-23659361D01*
X28025683Y-23891879D01*
X28225561Y-24091757D01*
X28460593Y-24248800D01*
X28721746Y-24356973D01*
X28998985Y-24412120D01*
X29281655Y-24412120D01*
X29558894Y-24356973D01*
X29820047Y-24248800D01*
X30055079Y-24091757D01*
X30254957Y-23891879D01*
X30410320Y-23659361D01*
X30565683Y-23891879D01*
X30765561Y-24091757D01*
X31000593Y-24248800D01*
X31261746Y-24356973D01*
X31538985Y-24412120D01*
X31821655Y-24412120D01*
X32098894Y-24356973D01*
X32360047Y-24248800D01*
X32595079Y-24091757D01*
X32794957Y-23891879D01*
X32950320Y-23659361D01*
X33105683Y-23891879D01*
X33305561Y-24091757D01*
X33540593Y-24248800D01*
X33801746Y-24356973D01*
X34078985Y-24412120D01*
X34361655Y-24412120D01*
X34638894Y-24356973D01*
X34900047Y-24248800D01*
X35135079Y-24091757D01*
X35334957Y-23891879D01*
X35492000Y-23656847D01*
X35600173Y-23395694D01*
X35655320Y-23118455D01*
X35655320Y-22835785D01*
X35600173Y-22558546D01*
X35492000Y-22297393D01*
X35334957Y-22062361D01*
X35135079Y-21862483D01*
X34900047Y-21705440D01*
X34638894Y-21597267D01*
X34528773Y-21575362D01*
X34570450Y-21569187D01*
X34836612Y-21474003D01*
X34961834Y-21407071D01*
X35033417Y-21163102D01*
X34220320Y-20350005D01*
X33407223Y-21163102D01*
X33478806Y-21407071D01*
X33734316Y-21527971D01*
X33918286Y-21574086D01*
X33801746Y-21597267D01*
X33540593Y-21705440D01*
X33305561Y-21862483D01*
X33105683Y-22062361D01*
X32950320Y-22294879D01*
X32794957Y-22062361D01*
X32595079Y-21862483D01*
X32360047Y-21705440D01*
X32098894Y-21597267D01*
X31980718Y-21573760D01*
X32098894Y-21550253D01*
X32360047Y-21442080D01*
X32595079Y-21285037D01*
X32794957Y-21085159D01*
X32951235Y-20851272D01*
X32983649Y-20911914D01*
X33227618Y-20983497D01*
X34040715Y-20170400D01*
X34399925Y-20170400D01*
X35213022Y-20983497D01*
X35456991Y-20911914D01*
X35577891Y-20656404D01*
X35646620Y-20382216D01*
X35660537Y-20099888D01*
X35619107Y-19820270D01*
X35523923Y-19554108D01*
X35456991Y-19428886D01*
X35213022Y-19357303D01*
X34399925Y-20170400D01*
X34040715Y-20170400D01*
X33227618Y-19357303D01*
X32983649Y-19428886D01*
X32953126Y-19493392D01*
X32952000Y-19490673D01*
X32794957Y-19255641D01*
X32611840Y-19072524D01*
X32668040Y-19026401D01*
X32841117Y-18815508D01*
X32956446Y-18599742D01*
X32992988Y-18689669D01*
X33142932Y-18917381D01*
X33334420Y-19111465D01*
X33411353Y-19163623D01*
X33407223Y-19177698D01*
X34220320Y-19990795D01*
X35033417Y-19177698D01*
X35030495Y-19167739D01*
X35113500Y-19111465D01*
X35304988Y-18917381D01*
X35454932Y-18689669D01*
X35557571Y-18437080D01*
X35608960Y-18169320D01*
X35608960Y-17419320D01*
X34350960Y-17419320D01*
X34350960Y-17439320D01*
X34096960Y-17439320D01*
X34096960Y-17419320D01*
X34076960Y-17419320D01*
X34076960Y-17165320D01*
X34096960Y-17165320D01*
X34096960Y-15322664D01*
X34350960Y-15322664D01*
X34350960Y-17165320D01*
X35608960Y-17165320D01*
X35608960Y-16415320D01*
X35557571Y-16147560D01*
X35454932Y-15894971D01*
X35304988Y-15667259D01*
X35113500Y-15473175D01*
X34887828Y-15320178D01*
X34636644Y-15214147D01*
X34565145Y-15200002D01*
X34350960Y-15322664D01*
X34096960Y-15322664D01*
X33882775Y-15200002D01*
X33811276Y-15214147D01*
X33560092Y-15320178D01*
X33334420Y-15473175D01*
X33142932Y-15667259D01*
X32992988Y-15894971D01*
X32956446Y-15984898D01*
X32841117Y-15769132D01*
X32668041Y-15558239D01*
X32457148Y-15385163D01*
X32216541Y-15256556D01*
X31955467Y-15177360D01*
X31683960Y-15150619D01*
X31412454Y-15177360D01*
X31151380Y-15256556D01*
X30910773Y-15385163D01*
X30699880Y-15558239D01*
X30526804Y-15769132D01*
X30413961Y-15980248D01*
X30301117Y-15769132D01*
X30128041Y-15558239D01*
X29917148Y-15385163D01*
X29676541Y-15256556D01*
X29415467Y-15177360D01*
X29143960Y-15150619D01*
X28872454Y-15177360D01*
X28611380Y-15256556D01*
X28370773Y-15385163D01*
X28159880Y-15558239D01*
X27986804Y-15769132D01*
X27873961Y-15980248D01*
X27761117Y-15769132D01*
X27588041Y-15558239D01*
X27377148Y-15385163D01*
X27136541Y-15256556D01*
X26875467Y-15177360D01*
X26603960Y-15150619D01*
X26332454Y-15177360D01*
X26071380Y-15256556D01*
X25830773Y-15385163D01*
X25619880Y-15558239D01*
X25446804Y-15769132D01*
X25333961Y-15980248D01*
X25221117Y-15769132D01*
X25048041Y-15558239D01*
X24837148Y-15385163D01*
X24596541Y-15256556D01*
X24335467Y-15177360D01*
X24063960Y-15150619D01*
X23792454Y-15177360D01*
X23531380Y-15256556D01*
X23290773Y-15385163D01*
X23079880Y-15558239D01*
X22906804Y-15769132D01*
X22793961Y-15980248D01*
X22681117Y-15769132D01*
X22508041Y-15558239D01*
X22297148Y-15385163D01*
X22056541Y-15256556D01*
X21795467Y-15177360D01*
X21523960Y-15150619D01*
X21252454Y-15177360D01*
X20991380Y-15256556D01*
X20750773Y-15385163D01*
X20539880Y-15558239D01*
X20366804Y-15769132D01*
X20253961Y-15980248D01*
X20141117Y-15769132D01*
X19968041Y-15558239D01*
X19757148Y-15385163D01*
X19516541Y-15256556D01*
X19255467Y-15177360D01*
X18983960Y-15150619D01*
X18712454Y-15177360D01*
X18451380Y-15256556D01*
X18210773Y-15385163D01*
X17999880Y-15558239D01*
X17826804Y-15769132D01*
X17713961Y-15980248D01*
X17601117Y-15769132D01*
X17428041Y-15558239D01*
X17217148Y-15385163D01*
X16976541Y-15256556D01*
X16715467Y-15177360D01*
X16443960Y-15150619D01*
X16172454Y-15177360D01*
X15911380Y-15256556D01*
X15670773Y-15385163D01*
X15459880Y-15558239D01*
X15286804Y-15769132D01*
X15158197Y-16009739D01*
X15079000Y-16270813D01*
X15058960Y-16474283D01*
X15058960Y-18110356D01*
X15079000Y-18313826D01*
X15158196Y-18574900D01*
X15286803Y-18815507D01*
X15459879Y-19026400D01*
X15512082Y-19069242D01*
X15325683Y-19255641D01*
X15168640Y-19490673D01*
X15060467Y-19751826D01*
X15005320Y-20029065D01*
X14541000Y-20029065D01*
X14541000Y-14419000D01*
X38221000Y-14419000D01*
X38221001Y-52795779D01*
G04 #@! TA.AperFunction,Conductor*
D21*
G36*
X38221001Y-52795779D02*
G01*
X38108356Y-52585034D01*
X37823500Y-52465146D01*
X36725125Y-53563520D01*
X37823500Y-54661894D01*
X38108356Y-54542006D01*
X38221001Y-54315337D01*
X38221001Y-57875779D01*
X38108356Y-57665034D01*
X37823500Y-57545146D01*
X36725125Y-58643520D01*
X37823500Y-59741894D01*
X38108356Y-59622006D01*
X38221001Y-59395337D01*
X38221001Y-60340000D01*
X37257805Y-60340000D01*
X37301353Y-60325366D01*
X37524006Y-60206356D01*
X37643894Y-59921500D01*
X36545520Y-58823125D01*
X35447146Y-59921500D01*
X35567034Y-60206356D01*
X35835959Y-60340000D01*
X32177805Y-60340000D01*
X32221353Y-60325366D01*
X32444006Y-60206356D01*
X32563894Y-59921500D01*
X31465520Y-58823125D01*
X30367146Y-59921500D01*
X30487034Y-60206356D01*
X30755959Y-60340000D01*
X14541000Y-60340000D01*
X14541000Y-52939760D01*
X16609924Y-52939760D01*
X16613600Y-52977083D01*
X16613601Y-55182268D01*
X16609924Y-55219600D01*
X16624598Y-55368585D01*
X16668054Y-55511846D01*
X16738626Y-55643876D01*
X16809801Y-55730602D01*
X16833600Y-55759601D01*
X16862598Y-55783399D01*
X19085928Y-58006730D01*
X19085928Y-59270000D01*
X19098188Y-59394482D01*
X19134498Y-59514180D01*
X19193463Y-59624494D01*
X19272815Y-59721185D01*
X19369506Y-59800537D01*
X19479820Y-59859502D01*
X19599518Y-59895812D01*
X19724000Y-59908072D01*
X21424000Y-59908072D01*
X21548482Y-59895812D01*
X21668180Y-59859502D01*
X21778494Y-59800537D01*
X21875185Y-59721185D01*
X21954537Y-59624494D01*
X22013502Y-59514180D01*
X22035513Y-59441620D01*
X22167368Y-59573475D01*
X22410589Y-59735990D01*
X22680842Y-59847932D01*
X22967740Y-59905000D01*
X23260260Y-59905000D01*
X23547158Y-59847932D01*
X23817411Y-59735990D01*
X24060632Y-59573475D01*
X24267475Y-59366632D01*
X24389195Y-59184466D01*
X24458822Y-59301355D01*
X24653731Y-59517588D01*
X24887080Y-59691641D01*
X25149901Y-59816825D01*
X25297110Y-59861476D01*
X25527000Y-59740155D01*
X25527000Y-58547000D01*
X25781000Y-58547000D01*
X25781000Y-59740155D01*
X26010890Y-59861476D01*
X26158099Y-59816825D01*
X26420920Y-59691641D01*
X26654269Y-59517588D01*
X26849178Y-59301355D01*
X26998157Y-59051252D01*
X27095481Y-58776891D01*
X27054180Y-58698204D01*
X29622453Y-58698204D01*
X29668535Y-59056718D01*
X29783674Y-59399353D01*
X29902684Y-59622006D01*
X30187540Y-59741894D01*
X31285915Y-58643520D01*
X30187540Y-57545146D01*
X29902684Y-57665034D01*
X29741821Y-57988730D01*
X29647198Y-58337589D01*
X29622453Y-58698204D01*
X27054180Y-58698204D01*
X26974814Y-58547000D01*
X25781000Y-58547000D01*
X25527000Y-58547000D01*
X25507000Y-58547000D01*
X25507000Y-58293000D01*
X25527000Y-58293000D01*
X25527000Y-57099845D01*
X25781000Y-57099845D01*
X25781000Y-58293000D01*
X26974814Y-58293000D01*
X27095481Y-58063109D01*
X26998157Y-57788748D01*
X26849178Y-57538645D01*
X26654269Y-57322412D01*
X26420920Y-57148359D01*
X26158099Y-57023175D01*
X26010890Y-56978524D01*
X25781000Y-57099845D01*
X25527000Y-57099845D01*
X25297110Y-56978524D01*
X25149901Y-57023175D01*
X24887080Y-57148359D01*
X24653731Y-57322412D01*
X24458822Y-57538645D01*
X24389195Y-57655534D01*
X24267475Y-57473368D01*
X24060632Y-57266525D01*
X23817411Y-57104010D01*
X23547158Y-56992068D01*
X23260260Y-56935000D01*
X22967740Y-56935000D01*
X22680842Y-56992068D01*
X22410589Y-57104010D01*
X22167368Y-57266525D01*
X22035513Y-57398380D01*
X22013502Y-57325820D01*
X21954537Y-57215506D01*
X21875185Y-57118815D01*
X21778494Y-57039463D01*
X21668180Y-56980498D01*
X21548482Y-56944188D01*
X21424000Y-56931928D01*
X20160730Y-56931928D01*
X18133600Y-54904799D01*
X18133600Y-54841500D01*
X30367146Y-54841500D01*
X30487034Y-55126356D01*
X30810730Y-55287219D01*
X31159589Y-55381842D01*
X31520204Y-55406587D01*
X31878718Y-55360505D01*
X32221353Y-55245366D01*
X32444006Y-55126356D01*
X32563893Y-54841501D01*
X32618175Y-54895783D01*
X32580182Y-54933776D01*
X32379364Y-55234321D01*
X32241038Y-55568270D01*
X32170520Y-55922788D01*
X32170520Y-56284252D01*
X32241038Y-56638770D01*
X32379364Y-56972719D01*
X32580182Y-57273264D01*
X32618175Y-57311257D01*
X32563893Y-57365539D01*
X32444006Y-57080684D01*
X32120310Y-56919821D01*
X31771451Y-56825198D01*
X31410836Y-56800453D01*
X31052322Y-56846535D01*
X30709687Y-56961674D01*
X30487034Y-57080684D01*
X30367146Y-57365540D01*
X31465520Y-58463915D01*
X31479662Y-58449772D01*
X31659268Y-58629378D01*
X31645125Y-58643520D01*
X32743500Y-59741894D01*
X33028356Y-59622006D01*
X33189219Y-59298310D01*
X33283842Y-58949451D01*
X33308587Y-58588836D01*
X33262505Y-58230322D01*
X33147366Y-57887687D01*
X33028356Y-57665034D01*
X32743501Y-57545147D01*
X32797783Y-57490865D01*
X32835776Y-57528858D01*
X33136321Y-57729676D01*
X33470270Y-57868002D01*
X33824788Y-57938520D01*
X34186252Y-57938520D01*
X34540770Y-57868002D01*
X34874719Y-57729676D01*
X35175264Y-57528858D01*
X35213257Y-57490865D01*
X35267539Y-57545147D01*
X34982684Y-57665034D01*
X34821821Y-57988730D01*
X34727198Y-58337589D01*
X34702453Y-58698204D01*
X34748535Y-59056718D01*
X34863674Y-59399353D01*
X34982684Y-59622006D01*
X35267540Y-59741894D01*
X36365915Y-58643520D01*
X36351772Y-58629378D01*
X36531378Y-58449772D01*
X36545520Y-58463915D01*
X37643894Y-57365540D01*
X37524006Y-57080684D01*
X37200310Y-56919821D01*
X36851451Y-56825198D01*
X36490836Y-56800453D01*
X36132322Y-56846535D01*
X35789687Y-56961674D01*
X35567034Y-57080684D01*
X35447147Y-57365539D01*
X35392865Y-57311257D01*
X35430858Y-57273264D01*
X35631676Y-56972719D01*
X35770002Y-56638770D01*
X35840520Y-56284252D01*
X35840520Y-55922788D01*
X35770002Y-55568270D01*
X35631676Y-55234321D01*
X35430858Y-54933776D01*
X35392865Y-54895783D01*
X35447147Y-54841501D01*
X35567034Y-55126356D01*
X35890730Y-55287219D01*
X36239589Y-55381842D01*
X36600204Y-55406587D01*
X36958718Y-55360505D01*
X37301353Y-55245366D01*
X37524006Y-55126356D01*
X37643894Y-54841500D01*
X36545520Y-53743125D01*
X36531378Y-53757268D01*
X36351772Y-53577662D01*
X36365915Y-53563520D01*
X35267540Y-52465146D01*
X34982684Y-52585034D01*
X34821821Y-52908730D01*
X34727198Y-53257589D01*
X34702453Y-53618204D01*
X34748535Y-53976718D01*
X34863674Y-54319353D01*
X34982684Y-54542006D01*
X35267539Y-54661893D01*
X35213257Y-54716175D01*
X35175264Y-54678182D01*
X34874719Y-54477364D01*
X34540770Y-54339038D01*
X34186252Y-54268520D01*
X33824788Y-54268520D01*
X33470270Y-54339038D01*
X33136321Y-54477364D01*
X32835776Y-54678182D01*
X32797783Y-54716175D01*
X32743501Y-54661893D01*
X33028356Y-54542006D01*
X33189219Y-54218310D01*
X33283842Y-53869451D01*
X33308587Y-53508836D01*
X33262505Y-53150322D01*
X33147366Y-52807687D01*
X33028356Y-52585034D01*
X32743500Y-52465146D01*
X31645125Y-53563520D01*
X31659268Y-53577662D01*
X31479662Y-53757268D01*
X31465520Y-53743125D01*
X30367146Y-54841500D01*
X18133600Y-54841500D01*
X18133600Y-53618204D01*
X29622453Y-53618204D01*
X29668535Y-53976718D01*
X29783674Y-54319353D01*
X29902684Y-54542006D01*
X30187540Y-54661894D01*
X31285915Y-53563520D01*
X30187540Y-52465146D01*
X29902684Y-52585034D01*
X29741821Y-52908730D01*
X29647198Y-53257589D01*
X29622453Y-53618204D01*
X18133600Y-53618204D01*
X18133600Y-53254561D01*
X19102621Y-52285540D01*
X30367146Y-52285540D01*
X31465520Y-53383915D01*
X32563894Y-52285540D01*
X35447146Y-52285540D01*
X36545520Y-53383915D01*
X37643894Y-52285540D01*
X37524006Y-52000684D01*
X37200310Y-51839821D01*
X36851451Y-51745198D01*
X36490836Y-51720453D01*
X36132322Y-51766535D01*
X35789687Y-51881674D01*
X35567034Y-52000684D01*
X35447146Y-52285540D01*
X32563894Y-52285540D01*
X32444006Y-52000684D01*
X32120310Y-51839821D01*
X31771451Y-51745198D01*
X31410836Y-51720453D01*
X31052322Y-51766535D01*
X30709687Y-51881674D01*
X30487034Y-52000684D01*
X30367146Y-52285540D01*
X19102621Y-52285540D01*
X19799763Y-51588399D01*
X19828761Y-51564601D01*
X19923734Y-51448876D01*
X19994306Y-51316847D01*
X20037763Y-51173586D01*
X20048760Y-51061933D01*
X20048760Y-51061924D01*
X20052436Y-51024601D01*
X20048760Y-50987278D01*
X20048760Y-35334071D01*
X20092697Y-35290134D01*
X20205965Y-35120616D01*
X20283986Y-34932258D01*
X20323760Y-34732299D01*
X20323760Y-34528421D01*
X20283986Y-34328462D01*
X20205965Y-34140104D01*
X20092697Y-33970586D01*
X19948534Y-33826423D01*
X19779016Y-33713155D01*
X19590658Y-33635134D01*
X19390699Y-33595360D01*
X19186821Y-33595360D01*
X18986862Y-33635134D01*
X18798504Y-33713155D01*
X18628986Y-33826423D01*
X18484823Y-33970586D01*
X18371555Y-34140104D01*
X18293534Y-34328462D01*
X18253760Y-34528421D01*
X18253760Y-34732299D01*
X18293534Y-34932258D01*
X18371555Y-35120616D01*
X18484823Y-35290134D01*
X18528760Y-35334071D01*
X18528761Y-50709797D01*
X16862603Y-52375956D01*
X16833599Y-52399759D01*
X16779938Y-52465146D01*
X16738626Y-52515484D01*
X16668055Y-52647513D01*
X16668054Y-52647514D01*
X16624597Y-52790775D01*
X16613600Y-52902428D01*
X16613600Y-52902438D01*
X16609924Y-52939760D01*
X14541000Y-52939760D01*
X14541000Y-20029065D01*
X15005320Y-20029065D01*
X15005320Y-20311735D01*
X15060467Y-20588974D01*
X15168640Y-20850127D01*
X15325683Y-21085159D01*
X15525561Y-21285037D01*
X15760593Y-21442080D01*
X16021746Y-21550253D01*
X16139922Y-21573760D01*
X16021746Y-21597267D01*
X15760593Y-21705440D01*
X15525561Y-21862483D01*
X15325683Y-22062361D01*
X15168640Y-22297393D01*
X15060467Y-22558546D01*
X15005320Y-22835785D01*
X15005320Y-23118455D01*
X15060467Y-23395694D01*
X15168640Y-23656847D01*
X15325683Y-23891879D01*
X15525561Y-24091757D01*
X15760593Y-24248800D01*
X16021746Y-24356973D01*
X16298985Y-24412120D01*
X16581655Y-24412120D01*
X16805322Y-24367629D01*
X16805321Y-29302917D01*
X16018079Y-30090160D01*
X15945781Y-30090160D01*
X15745822Y-30129934D01*
X15557464Y-30207955D01*
X15387946Y-30321223D01*
X15243783Y-30465386D01*
X15130515Y-30634904D01*
X15052494Y-30823262D01*
X15012720Y-31023221D01*
X15012720Y-31227099D01*
X15052494Y-31427058D01*
X15130515Y-31615416D01*
X15243783Y-31784934D01*
X15387946Y-31929097D01*
X15557464Y-32042365D01*
X15745822Y-32120386D01*
X15945781Y-32160160D01*
X16149659Y-32160160D01*
X16349618Y-32120386D01*
X16537976Y-32042365D01*
X16707494Y-31929097D01*
X16851657Y-31784934D01*
X16964925Y-31615416D01*
X17042946Y-31427058D01*
X17082720Y-31227099D01*
X17082720Y-31175121D01*
X17331140Y-30926701D01*
X18812560Y-30926701D01*
X18812560Y-31130579D01*
X18852334Y-31330538D01*
X18930355Y-31518896D01*
X19043623Y-31688414D01*
X19187786Y-31832577D01*
X19357304Y-31945845D01*
X19545662Y-32023866D01*
X19745621Y-32063640D01*
X19949499Y-32063640D01*
X20149458Y-32023866D01*
X20337816Y-31945845D01*
X20507334Y-31832577D01*
X20551271Y-31788640D01*
X20661923Y-31788640D01*
X20683208Y-31895647D01*
X20761229Y-32084005D01*
X20874497Y-32253523D01*
X21018660Y-32397686D01*
X21188178Y-32510954D01*
X21376536Y-32588975D01*
X21485141Y-32610578D01*
X21531290Y-32721991D01*
X21644558Y-32891509D01*
X21688496Y-32935447D01*
X21688495Y-33710897D01*
X21684819Y-33748220D01*
X21688495Y-33785542D01*
X21688495Y-33785552D01*
X21699492Y-33897205D01*
X21733993Y-34010940D01*
X21742949Y-34040466D01*
X21813521Y-34172496D01*
X21853366Y-34221046D01*
X21908494Y-34288221D01*
X21937498Y-34312024D01*
X32027676Y-44402203D01*
X32051474Y-44431201D01*
X32080472Y-44454999D01*
X32167198Y-44526174D01*
X32299228Y-44596746D01*
X32442436Y-44640187D01*
X32497386Y-44695137D01*
X32666904Y-44808405D01*
X32855262Y-44886426D01*
X33055221Y-44926200D01*
X33259099Y-44926200D01*
X33459058Y-44886426D01*
X33647416Y-44808405D01*
X33816934Y-44695137D01*
X33961097Y-44550974D01*
X34074365Y-44381456D01*
X34152386Y-44193098D01*
X34192160Y-43993139D01*
X34192160Y-43789261D01*
X34152386Y-43589302D01*
X34074365Y-43400944D01*
X33961097Y-43231426D01*
X33816934Y-43087263D01*
X33647416Y-42973995D01*
X33476358Y-42903140D01*
X33647416Y-42832285D01*
X33816934Y-42719017D01*
X33961097Y-42574854D01*
X34074365Y-42405336D01*
X34152386Y-42216978D01*
X34192160Y-42017019D01*
X34192160Y-41813141D01*
X34152386Y-41613182D01*
X34074365Y-41424824D01*
X33961097Y-41255306D01*
X33816934Y-41111143D01*
X33647416Y-40997875D01*
X33459058Y-40919854D01*
X33259099Y-40880080D01*
X33196962Y-40880080D01*
X33166596Y-40849714D01*
X33312726Y-40878781D01*
X33516604Y-40878781D01*
X33716563Y-40839007D01*
X33904921Y-40760986D01*
X34074439Y-40647718D01*
X34218602Y-40503555D01*
X34331870Y-40334037D01*
X34409891Y-40145679D01*
X34449665Y-39945720D01*
X34449665Y-39741842D01*
X34409891Y-39541883D01*
X34331870Y-39353525D01*
X34218602Y-39184007D01*
X34074439Y-39039844D01*
X33904921Y-38926576D01*
X33739045Y-38857867D01*
X33882974Y-38761697D01*
X34027137Y-38617534D01*
X34140405Y-38448016D01*
X34218426Y-38259658D01*
X34258200Y-38059699D01*
X34258200Y-37855821D01*
X34218426Y-37655862D01*
X34140405Y-37467504D01*
X34027137Y-37297986D01*
X33882974Y-37153823D01*
X33713456Y-37040555D01*
X33525098Y-36962534D01*
X33325139Y-36922760D01*
X33263002Y-36922760D01*
X27607642Y-31267400D01*
X33397928Y-31267400D01*
X33397928Y-33766760D01*
X33410188Y-33891242D01*
X33446498Y-34010940D01*
X33505463Y-34121254D01*
X33584815Y-34217945D01*
X33681506Y-34297297D01*
X33791820Y-34356262D01*
X33911518Y-34392572D01*
X34036000Y-34404832D01*
X36535360Y-34404832D01*
X36659842Y-34392572D01*
X36779540Y-34356262D01*
X36889854Y-34297297D01*
X36986545Y-34217945D01*
X37065897Y-34121254D01*
X37124862Y-34010940D01*
X37161172Y-33891242D01*
X37173432Y-33766760D01*
X37173432Y-31267400D01*
X37161172Y-31142918D01*
X37124862Y-31023220D01*
X37065897Y-30912906D01*
X36986545Y-30816215D01*
X36889854Y-30736863D01*
X36779540Y-30677898D01*
X36659842Y-30641588D01*
X36535360Y-30629328D01*
X34036000Y-30629328D01*
X33911518Y-30641588D01*
X33791820Y-30677898D01*
X33681506Y-30736863D01*
X33584815Y-30816215D01*
X33505463Y-30912906D01*
X33446498Y-31023220D01*
X33410188Y-31142918D01*
X33397928Y-31267400D01*
X27607642Y-31267400D01*
X26360699Y-30020457D01*
X34151909Y-30020457D01*
X34277784Y-30310395D01*
X34609942Y-30476219D01*
X34968067Y-30574055D01*
X35338399Y-30600145D01*
X35706705Y-30553485D01*
X36058831Y-30435869D01*
X36293576Y-30310395D01*
X36419451Y-30020457D01*
X35285680Y-28886685D01*
X34151909Y-30020457D01*
X26360699Y-30020457D01*
X25223759Y-28883518D01*
X25199956Y-28854514D01*
X25084546Y-28759799D01*
X33392615Y-28759799D01*
X33439275Y-29128105D01*
X33556891Y-29480231D01*
X33682365Y-29714976D01*
X33972303Y-29840851D01*
X35106075Y-28707080D01*
X35465285Y-28707080D01*
X36599057Y-29840851D01*
X36888995Y-29714976D01*
X37054819Y-29382818D01*
X37152655Y-29024693D01*
X37178745Y-28654361D01*
X37132085Y-28286055D01*
X37014469Y-27933929D01*
X36888995Y-27699184D01*
X36599057Y-27573309D01*
X35465285Y-28707080D01*
X35106075Y-28707080D01*
X33972303Y-27573309D01*
X33682365Y-27699184D01*
X33516541Y-28031342D01*
X33418705Y-28389467D01*
X33392615Y-28759799D01*
X25084546Y-28759799D01*
X25084231Y-28759541D01*
X24952202Y-28688969D01*
X24808941Y-28645512D01*
X24697288Y-28634515D01*
X24697277Y-28634515D01*
X24659955Y-28630839D01*
X24622633Y-28634515D01*
X23149580Y-28634515D01*
X23105643Y-28590578D01*
X22936125Y-28477310D01*
X22747767Y-28399289D01*
X22547808Y-28359515D01*
X22343930Y-28359515D01*
X22143971Y-28399289D01*
X21955613Y-28477310D01*
X21786095Y-28590578D01*
X21641932Y-28734741D01*
X21528664Y-28904259D01*
X21450643Y-29092617D01*
X21410869Y-29292576D01*
X21410869Y-29496454D01*
X21450643Y-29696413D01*
X21528664Y-29884771D01*
X21594793Y-29983740D01*
X21492767Y-29983740D01*
X21455443Y-29980064D01*
X21418118Y-29983740D01*
X21418110Y-29983740D01*
X21306457Y-29994737D01*
X21163196Y-30038194D01*
X21065976Y-30090160D01*
X21031167Y-30108766D01*
X20988822Y-30143518D01*
X20915442Y-30203739D01*
X20891645Y-30232736D01*
X20855741Y-30268640D01*
X20551271Y-30268640D01*
X20507334Y-30224703D01*
X20337816Y-30111435D01*
X20149458Y-30033414D01*
X19949499Y-29993640D01*
X19745621Y-29993640D01*
X19545662Y-30033414D01*
X19357304Y-30111435D01*
X19187786Y-30224703D01*
X19043623Y-30368866D01*
X18930355Y-30538384D01*
X18852334Y-30726742D01*
X18812560Y-30926701D01*
X17331140Y-30926701D01*
X18076325Y-30181517D01*
X18105322Y-30157720D01*
X18200295Y-30041995D01*
X18270867Y-29909966D01*
X18314324Y-29766705D01*
X18325321Y-29655052D01*
X18325321Y-29655051D01*
X18328998Y-29617719D01*
X18325321Y-29580386D01*
X18325321Y-27393703D01*
X34151909Y-27393703D01*
X35285680Y-28527475D01*
X36419451Y-27393703D01*
X36293576Y-27103765D01*
X35961418Y-26937941D01*
X35603293Y-26840105D01*
X35232961Y-26814015D01*
X34864655Y-26860675D01*
X34512529Y-26978291D01*
X34277784Y-27103765D01*
X34151909Y-27393703D01*
X18325321Y-27393703D01*
X18325321Y-24259043D01*
X18561746Y-24356973D01*
X18838985Y-24412120D01*
X19121655Y-24412120D01*
X19398894Y-24356973D01*
X19660047Y-24248800D01*
X19895079Y-24091757D01*
X20094957Y-23891879D01*
X20250320Y-23659361D01*
X20405683Y-23891879D01*
X20605561Y-24091757D01*
X20840593Y-24248800D01*
X21101746Y-24356973D01*
X21378985Y-24412120D01*
X21661655Y-24412120D01*
X21938894Y-24356973D01*
X22200047Y-24248800D01*
X22435079Y-24091757D01*
X22634957Y-23891879D01*
X22790320Y-23659361D01*
X22945683Y-23891879D01*
X23145561Y-24091757D01*
X23380593Y-24248800D01*
X23641746Y-24356973D01*
X23918985Y-24412120D01*
X24201655Y-24412120D01*
X24478894Y-24356973D01*
X24740047Y-24248800D01*
X24975079Y-24091757D01*
X25174957Y-23891879D01*
X25330320Y-23659361D01*
X25485683Y-23891879D01*
X25685561Y-24091757D01*
X25920593Y-24248800D01*
X26181746Y-24356973D01*
X26458985Y-24412120D01*
X26741655Y-24412120D01*
X27018894Y-24356973D01*
X27280047Y-24248800D01*
X27515079Y-24091757D01*
X27714957Y-23891879D01*
X27870320Y-23659361D01*
X28025683Y-23891879D01*
X28225561Y-24091757D01*
X28460593Y-24248800D01*
X28721746Y-24356973D01*
X28998985Y-24412120D01*
X29281655Y-24412120D01*
X29558894Y-24356973D01*
X29820047Y-24248800D01*
X30055079Y-24091757D01*
X30254957Y-23891879D01*
X30410320Y-23659361D01*
X30565683Y-23891879D01*
X30765561Y-24091757D01*
X31000593Y-24248800D01*
X31261746Y-24356973D01*
X31538985Y-24412120D01*
X31821655Y-24412120D01*
X32098894Y-24356973D01*
X32360047Y-24248800D01*
X32595079Y-24091757D01*
X32794957Y-23891879D01*
X32950320Y-23659361D01*
X33105683Y-23891879D01*
X33305561Y-24091757D01*
X33540593Y-24248800D01*
X33801746Y-24356973D01*
X34078985Y-24412120D01*
X34361655Y-24412120D01*
X34638894Y-24356973D01*
X34900047Y-24248800D01*
X35135079Y-24091757D01*
X35334957Y-23891879D01*
X35492000Y-23656847D01*
X35600173Y-23395694D01*
X35655320Y-23118455D01*
X35655320Y-22835785D01*
X35600173Y-22558546D01*
X35492000Y-22297393D01*
X35334957Y-22062361D01*
X35135079Y-21862483D01*
X34900047Y-21705440D01*
X34638894Y-21597267D01*
X34528773Y-21575362D01*
X34570450Y-21569187D01*
X34836612Y-21474003D01*
X34961834Y-21407071D01*
X35033417Y-21163102D01*
X34220320Y-20350005D01*
X33407223Y-21163102D01*
X33478806Y-21407071D01*
X33734316Y-21527971D01*
X33918286Y-21574086D01*
X33801746Y-21597267D01*
X33540593Y-21705440D01*
X33305561Y-21862483D01*
X33105683Y-22062361D01*
X32950320Y-22294879D01*
X32794957Y-22062361D01*
X32595079Y-21862483D01*
X32360047Y-21705440D01*
X32098894Y-21597267D01*
X31980718Y-21573760D01*
X32098894Y-21550253D01*
X32360047Y-21442080D01*
X32595079Y-21285037D01*
X32794957Y-21085159D01*
X32951235Y-20851272D01*
X32983649Y-20911914D01*
X33227618Y-20983497D01*
X34040715Y-20170400D01*
X34399925Y-20170400D01*
X35213022Y-20983497D01*
X35456991Y-20911914D01*
X35577891Y-20656404D01*
X35646620Y-20382216D01*
X35660537Y-20099888D01*
X35619107Y-19820270D01*
X35523923Y-19554108D01*
X35456991Y-19428886D01*
X35213022Y-19357303D01*
X34399925Y-20170400D01*
X34040715Y-20170400D01*
X33227618Y-19357303D01*
X32983649Y-19428886D01*
X32953126Y-19493392D01*
X32952000Y-19490673D01*
X32794957Y-19255641D01*
X32611840Y-19072524D01*
X32668040Y-19026401D01*
X32841117Y-18815508D01*
X32956446Y-18599742D01*
X32992988Y-18689669D01*
X33142932Y-18917381D01*
X33334420Y-19111465D01*
X33411353Y-19163623D01*
X33407223Y-19177698D01*
X34220320Y-19990795D01*
X35033417Y-19177698D01*
X35030495Y-19167739D01*
X35113500Y-19111465D01*
X35304988Y-18917381D01*
X35454932Y-18689669D01*
X35557571Y-18437080D01*
X35608960Y-18169320D01*
X35608960Y-17419320D01*
X34350960Y-17419320D01*
X34350960Y-17439320D01*
X34096960Y-17439320D01*
X34096960Y-17419320D01*
X34076960Y-17419320D01*
X34076960Y-17165320D01*
X34096960Y-17165320D01*
X34096960Y-15322664D01*
X34350960Y-15322664D01*
X34350960Y-17165320D01*
X35608960Y-17165320D01*
X35608960Y-16415320D01*
X35557571Y-16147560D01*
X35454932Y-15894971D01*
X35304988Y-15667259D01*
X35113500Y-15473175D01*
X34887828Y-15320178D01*
X34636644Y-15214147D01*
X34565145Y-15200002D01*
X34350960Y-15322664D01*
X34096960Y-15322664D01*
X33882775Y-15200002D01*
X33811276Y-15214147D01*
X33560092Y-15320178D01*
X33334420Y-15473175D01*
X33142932Y-15667259D01*
X32992988Y-15894971D01*
X32956446Y-15984898D01*
X32841117Y-15769132D01*
X32668041Y-15558239D01*
X32457148Y-15385163D01*
X32216541Y-15256556D01*
X31955467Y-15177360D01*
X31683960Y-15150619D01*
X31412454Y-15177360D01*
X31151380Y-15256556D01*
X30910773Y-15385163D01*
X30699880Y-15558239D01*
X30526804Y-15769132D01*
X30413961Y-15980248D01*
X30301117Y-15769132D01*
X30128041Y-15558239D01*
X29917148Y-15385163D01*
X29676541Y-15256556D01*
X29415467Y-15177360D01*
X29143960Y-15150619D01*
X28872454Y-15177360D01*
X28611380Y-15256556D01*
X28370773Y-15385163D01*
X28159880Y-15558239D01*
X27986804Y-15769132D01*
X27873961Y-15980248D01*
X27761117Y-15769132D01*
X27588041Y-15558239D01*
X27377148Y-15385163D01*
X27136541Y-15256556D01*
X26875467Y-15177360D01*
X26603960Y-15150619D01*
X26332454Y-15177360D01*
X26071380Y-15256556D01*
X25830773Y-15385163D01*
X25619880Y-15558239D01*
X25446804Y-15769132D01*
X25333961Y-15980248D01*
X25221117Y-15769132D01*
X25048041Y-15558239D01*
X24837148Y-15385163D01*
X24596541Y-15256556D01*
X24335467Y-15177360D01*
X24063960Y-15150619D01*
X23792454Y-15177360D01*
X23531380Y-15256556D01*
X23290773Y-15385163D01*
X23079880Y-15558239D01*
X22906804Y-15769132D01*
X22793961Y-15980248D01*
X22681117Y-15769132D01*
X22508041Y-15558239D01*
X22297148Y-15385163D01*
X22056541Y-15256556D01*
X21795467Y-15177360D01*
X21523960Y-15150619D01*
X21252454Y-15177360D01*
X20991380Y-15256556D01*
X20750773Y-15385163D01*
X20539880Y-15558239D01*
X20366804Y-15769132D01*
X20253961Y-15980248D01*
X20141117Y-15769132D01*
X19968041Y-15558239D01*
X19757148Y-15385163D01*
X19516541Y-15256556D01*
X19255467Y-15177360D01*
X18983960Y-15150619D01*
X18712454Y-15177360D01*
X18451380Y-15256556D01*
X18210773Y-15385163D01*
X17999880Y-15558239D01*
X17826804Y-15769132D01*
X17713961Y-15980248D01*
X17601117Y-15769132D01*
X17428041Y-15558239D01*
X17217148Y-15385163D01*
X16976541Y-15256556D01*
X16715467Y-15177360D01*
X16443960Y-15150619D01*
X16172454Y-15177360D01*
X15911380Y-15256556D01*
X15670773Y-15385163D01*
X15459880Y-15558239D01*
X15286804Y-15769132D01*
X15158197Y-16009739D01*
X15079000Y-16270813D01*
X15058960Y-16474283D01*
X15058960Y-18110356D01*
X15079000Y-18313826D01*
X15158196Y-18574900D01*
X15286803Y-18815507D01*
X15459879Y-19026400D01*
X15512082Y-19069242D01*
X15325683Y-19255641D01*
X15168640Y-19490673D01*
X15060467Y-19751826D01*
X15005320Y-20029065D01*
X14541000Y-20029065D01*
X14541000Y-14419000D01*
X38221000Y-14419000D01*
X38221001Y-52795779D01*
G37*
G04 #@! TD.AperFunction*
M02*
