M48
; DRILL file {KiCad (5.1.9-0-10_14)} date Tuesday, April 20, 2021 at 10:11:43 PM
; FORMAT={-:-/ absolute / inch / decimal}
; #@! TF.CreationDate,2021-04-20T22:11:43+01:00
; #@! TF.GenerationSoftware,Kicad,Pcbnew,(5.1.9-0-10_14)
; #@! TF.FileFunction,Plated,1,2,PTH
FMAT,2
INCH
T1C0.0118
T2C0.0157
T3C0.0354
T4C0.0394
T5C0.0394
T6C0.0630
%
G90
G05
T1
X1.51Y-1.97
T2
X0.585Y-1.71
X0.59Y-0.59
X0.61Y-2.22
X0.61Y-2.33
X0.6318Y-1.2254
X0.645Y-0.995
X0.72Y-1.2
X0.7594Y-1.3634
X0.7814Y-1.2216
X0.8142Y-1.1678
X0.844Y-1.7652
X0.8492Y-1.4158
X0.85Y-1.0
X0.8535Y-1.2438
X0.87Y-2.12
X0.8837Y-1.1573
X0.8838Y-1.269
X0.9Y-0.59
X1.0382Y-1.5892
X1.055Y-2.12
X1.1192Y-1.1908
X1.1366Y-1.7886
X1.3054Y-1.6502
X1.3054Y-1.728
X1.3075Y-2.0275
X1.308Y-1.4944
X1.3155Y-1.5687
X1.4336Y-0.6824
X1.46Y-1.0
X1.49Y-1.87
T3
X0.6473Y-0.7941
X0.6473Y-0.9046
X0.7473Y-0.7941
X0.7473Y-0.9046
X0.8473Y-0.7941
X0.8473Y-0.9046
X0.9473Y-0.7941
X0.9473Y-0.9046
X1.0473Y-0.7941
X1.0473Y-0.9046
X1.1473Y-0.7941
X1.1473Y-0.9046
X1.2473Y-0.7941
X1.2473Y-0.9046
X1.3473Y-0.7941
X1.3473Y-0.9046
T4
X0.6474Y-0.6808
X0.7474Y-0.6808
X0.81Y-2.3
X0.8474Y-0.6808
X0.91Y-2.3
X0.9474Y-0.6808
X1.01Y-2.3
X1.0474Y-0.6808
X1.1474Y-0.6808
X1.2474Y-0.6808
X1.3474Y-0.6808
T5
X1.3892Y-1.1302
X1.3892Y-1.2802
T6
X1.2388Y-2.1088
X1.2388Y-2.3088
X1.3388Y-2.2088
X1.4388Y-2.1088
X1.4388Y-2.3088
T0
M30
