G04 #@! TF.GenerationSoftware,KiCad,Pcbnew,(5.1.9-0-10_14)*
G04 #@! TF.CreationDate,2021-04-20T22:11:40+01:00*
G04 #@! TF.ProjectId,TinyTX4-sma,54696e79-5458-4342-9d73-6d612e6b6963,rev?*
G04 #@! TF.SameCoordinates,Original*
G04 #@! TF.FileFunction,Legend,Top*
G04 #@! TF.FilePolarity,Positive*
%FSLAX46Y46*%
G04 Gerber Fmt 4.6, Leading zero omitted, Abs format (unit mm)*
G04 Created by KiCad (PCBNEW (5.1.9-0-10_14)) date 2021-04-20 22:11:40*
%MOMM*%
%LPD*%
G01*
G04 APERTURE LIST*
%ADD10C,0.153000*%
%ADD11C,0.130000*%
%ADD12C,0.120000*%
%ADD13C,0.010000*%
%ADD14C,0.100000*%
%ADD15C,0.015000*%
%ADD16C,0.150000*%
G04 APERTURE END LIST*
D10*
X19963238Y-38806380D02*
X19629904Y-38330190D01*
X19391809Y-38806380D02*
X19391809Y-37806380D01*
X19772761Y-37806380D01*
X19867999Y-37854000D01*
X19915619Y-37901619D01*
X19963238Y-37996857D01*
X19963238Y-38139714D01*
X19915619Y-38234952D01*
X19867999Y-38282571D01*
X19772761Y-38330190D01*
X19391809Y-38330190D01*
X20725142Y-38282571D02*
X20391809Y-38282571D01*
X20391809Y-38806380D02*
X20391809Y-37806380D01*
X20867999Y-37806380D01*
X21248952Y-38806380D02*
X21248952Y-37806380D01*
X21582285Y-38520666D01*
X21915619Y-37806380D01*
X21915619Y-38806380D01*
X22820380Y-37806380D02*
X22629904Y-37806380D01*
X22534666Y-37854000D01*
X22487047Y-37901619D01*
X22391809Y-38044476D01*
X22344190Y-38234952D01*
X22344190Y-38615904D01*
X22391809Y-38711142D01*
X22439428Y-38758761D01*
X22534666Y-38806380D01*
X22725142Y-38806380D01*
X22820380Y-38758761D01*
X22867999Y-38711142D01*
X22915619Y-38615904D01*
X22915619Y-38377809D01*
X22867999Y-38282571D01*
X22820380Y-38234952D01*
X22725142Y-38187333D01*
X22534666Y-38187333D01*
X22439428Y-38234952D01*
X22391809Y-38282571D01*
X22344190Y-38377809D01*
X23391809Y-38806380D02*
X23582285Y-38806380D01*
X23677523Y-38758761D01*
X23725142Y-38711142D01*
X23820380Y-38568285D01*
X23867999Y-38377809D01*
X23867999Y-37996857D01*
X23820380Y-37901619D01*
X23772761Y-37854000D01*
X23677523Y-37806380D01*
X23487047Y-37806380D01*
X23391809Y-37854000D01*
X23344190Y-37901619D01*
X23296571Y-37996857D01*
X23296571Y-38234952D01*
X23344190Y-38330190D01*
X23391809Y-38377809D01*
X23487047Y-38425428D01*
X23677523Y-38425428D01*
X23772761Y-38377809D01*
X23820380Y-38330190D01*
X23867999Y-38234952D01*
X24582285Y-39187333D02*
X24534666Y-39139714D01*
X24439428Y-38996857D01*
X24391809Y-38901619D01*
X24344190Y-38758761D01*
X24296571Y-38520666D01*
X24296571Y-38330190D01*
X24344190Y-38092095D01*
X24391809Y-37949238D01*
X24439428Y-37854000D01*
X24534666Y-37711142D01*
X24582285Y-37663523D01*
X24963238Y-38806380D02*
X24963238Y-37806380D01*
X24963238Y-38282571D02*
X25534666Y-38282571D01*
X25534666Y-38806380D02*
X25534666Y-37806380D01*
X25915619Y-39187333D02*
X25963238Y-39139714D01*
X26058476Y-38996857D01*
X26106095Y-38901619D01*
X26153714Y-38758761D01*
X26201333Y-38520666D01*
X26201333Y-38330190D01*
X26153714Y-38092095D01*
X26106095Y-37949238D01*
X26058476Y-37854000D01*
X25963238Y-37711142D01*
X25915619Y-37663523D01*
X26582285Y-37806380D02*
X26820380Y-38806380D01*
X27010857Y-38092095D01*
X27201333Y-38806380D01*
X27439428Y-37806380D01*
X29614761Y-54879714D02*
X29662380Y-54736857D01*
X29662380Y-54498761D01*
X29614761Y-54403523D01*
X29567142Y-54355904D01*
X29471904Y-54308285D01*
X29376666Y-54308285D01*
X29281428Y-54355904D01*
X29233809Y-54403523D01*
X29186190Y-54498761D01*
X29138571Y-54689238D01*
X29090952Y-54784476D01*
X29043333Y-54832095D01*
X28948095Y-54879714D01*
X28852857Y-54879714D01*
X28757619Y-54832095D01*
X28710000Y-54784476D01*
X28662380Y-54689238D01*
X28662380Y-54451142D01*
X28710000Y-54308285D01*
X29662380Y-53879714D02*
X28662380Y-53879714D01*
X29376666Y-53546380D01*
X28662380Y-53213047D01*
X29662380Y-53213047D01*
X29376666Y-52784476D02*
X29376666Y-52308285D01*
X29662380Y-52879714D02*
X28662380Y-52546380D01*
X29662380Y-52213047D01*
D11*
X20860476Y-21181904D02*
X21317619Y-21181904D01*
X21089047Y-21981904D02*
X21089047Y-21181904D01*
X21508095Y-21181904D02*
X22041428Y-21981904D01*
X22041428Y-21181904D02*
X21508095Y-21981904D01*
X23866666Y-21981904D02*
X23600000Y-21600952D01*
X23409523Y-21981904D02*
X23409523Y-21181904D01*
X23714285Y-21181904D01*
X23790476Y-21220000D01*
X23828571Y-21258095D01*
X23866666Y-21334285D01*
X23866666Y-21448571D01*
X23828571Y-21524761D01*
X23790476Y-21562857D01*
X23714285Y-21600952D01*
X23409523Y-21600952D01*
X24133333Y-21181904D02*
X24666666Y-21981904D01*
X24666666Y-21181904D02*
X24133333Y-21981904D01*
X16116333Y-14420904D02*
X16649666Y-14420904D01*
X16306809Y-15220904D01*
X19075380Y-14420904D02*
X18923000Y-14420904D01*
X18846809Y-14459000D01*
X18808714Y-14497095D01*
X18732523Y-14611380D01*
X18694428Y-14763761D01*
X18694428Y-15068523D01*
X18732523Y-15144714D01*
X18770619Y-15182809D01*
X18846809Y-15220904D01*
X18999190Y-15220904D01*
X19075380Y-15182809D01*
X19113476Y-15144714D01*
X19151571Y-15068523D01*
X19151571Y-14878047D01*
X19113476Y-14801857D01*
X19075380Y-14763761D01*
X18999190Y-14725666D01*
X18846809Y-14725666D01*
X18770619Y-14763761D01*
X18732523Y-14801857D01*
X18694428Y-14878047D01*
X21653476Y-14420904D02*
X21272523Y-14420904D01*
X21234428Y-14801857D01*
X21272523Y-14763761D01*
X21348714Y-14725666D01*
X21539190Y-14725666D01*
X21615380Y-14763761D01*
X21653476Y-14801857D01*
X21691571Y-14878047D01*
X21691571Y-15068523D01*
X21653476Y-15144714D01*
X21615380Y-15182809D01*
X21539190Y-15220904D01*
X21348714Y-15220904D01*
X21272523Y-15182809D01*
X21234428Y-15144714D01*
X24155380Y-14687571D02*
X24155380Y-15220904D01*
X23964904Y-14382809D02*
X23774428Y-14954238D01*
X24269666Y-14954238D01*
X26771571Y-15220904D02*
X26314428Y-15220904D01*
X26543000Y-15220904D02*
X26543000Y-14420904D01*
X26466809Y-14535190D01*
X26390619Y-14611380D01*
X26314428Y-14649476D01*
X28816333Y-14420904D02*
X29311571Y-14420904D01*
X29044904Y-14725666D01*
X29159190Y-14725666D01*
X29235380Y-14763761D01*
X29273476Y-14801857D01*
X29311571Y-14878047D01*
X29311571Y-15068523D01*
X29273476Y-15144714D01*
X29235380Y-15182809D01*
X29159190Y-15220904D01*
X28930619Y-15220904D01*
X28854428Y-15182809D01*
X28816333Y-15144714D01*
X30718883Y-14420904D02*
X31214121Y-14420904D01*
X30947455Y-14725666D01*
X31061740Y-14725666D01*
X31137931Y-14763761D01*
X31176026Y-14801857D01*
X31214121Y-14878047D01*
X31214121Y-15068523D01*
X31176026Y-15144714D01*
X31137931Y-15182809D01*
X31061740Y-15220904D01*
X30833169Y-15220904D01*
X30756979Y-15182809D01*
X30718883Y-15144714D01*
X31442693Y-14420904D02*
X31709360Y-15220904D01*
X31976026Y-14420904D01*
X32166502Y-14420904D02*
X32661740Y-14420904D01*
X32395074Y-14725666D01*
X32509360Y-14725666D01*
X32585550Y-14763761D01*
X32623645Y-14801857D01*
X32661740Y-14878047D01*
X32661740Y-15068523D01*
X32623645Y-15144714D01*
X32585550Y-15182809D01*
X32509360Y-15220904D01*
X32280788Y-15220904D01*
X32204598Y-15182809D01*
X32166502Y-15144714D01*
X33609356Y-14459000D02*
X33533165Y-14420904D01*
X33418880Y-14420904D01*
X33304594Y-14459000D01*
X33228403Y-14535190D01*
X33190308Y-14611380D01*
X33152213Y-14763761D01*
X33152213Y-14878047D01*
X33190308Y-15030428D01*
X33228403Y-15106619D01*
X33304594Y-15182809D01*
X33418880Y-15220904D01*
X33495070Y-15220904D01*
X33609356Y-15182809D01*
X33647451Y-15144714D01*
X33647451Y-14878047D01*
X33495070Y-14878047D01*
X33990308Y-15220904D02*
X33990308Y-14420904D01*
X34447451Y-15220904D01*
X34447451Y-14420904D01*
X34828403Y-15220904D02*
X34828403Y-14420904D01*
X35018880Y-14420904D01*
X35133165Y-14459000D01*
X35209356Y-14535190D01*
X35247451Y-14611380D01*
X35285546Y-14763761D01*
X35285546Y-14878047D01*
X35247451Y-15030428D01*
X35209356Y-15106619D01*
X35133165Y-15182809D01*
X35018880Y-15220904D01*
X34828403Y-15220904D01*
D10*
X36663380Y-22644716D02*
X36663380Y-22073287D01*
X37663380Y-22359001D02*
X36663380Y-22359001D01*
X37663380Y-21739954D02*
X36996714Y-21739954D01*
X36663380Y-21739954D02*
X36711000Y-21787573D01*
X36758619Y-21739954D01*
X36711000Y-21692335D01*
X36663380Y-21739954D01*
X36758619Y-21739954D01*
X36996714Y-21263763D02*
X37663380Y-21263763D01*
X37091952Y-21263763D02*
X37044333Y-21216144D01*
X36996714Y-21120906D01*
X36996714Y-20978049D01*
X37044333Y-20882811D01*
X37139571Y-20835192D01*
X37663380Y-20835192D01*
X36996714Y-20454240D02*
X37663380Y-20216144D01*
X36996714Y-19978049D02*
X37663380Y-20216144D01*
X37901476Y-20311382D01*
X37949095Y-20359001D01*
X37996714Y-20454240D01*
X36663380Y-19739954D02*
X36663380Y-19168525D01*
X37663380Y-19454240D02*
X36663380Y-19454240D01*
X36663380Y-18930430D02*
X37663380Y-18263763D01*
X36663380Y-18263763D02*
X37663380Y-18930430D01*
X36996714Y-17454240D02*
X37663380Y-17454240D01*
X36615761Y-17692335D02*
X37330047Y-17930430D01*
X37330047Y-17311382D01*
X33948904Y-26217571D02*
X34091761Y-26265190D01*
X34139380Y-26312809D01*
X34187000Y-26408047D01*
X34187000Y-26550904D01*
X34139380Y-26646142D01*
X34091761Y-26693761D01*
X33996523Y-26741380D01*
X33615571Y-26741380D01*
X33615571Y-25741380D01*
X33948904Y-25741380D01*
X34044142Y-25789000D01*
X34091761Y-25836619D01*
X34139380Y-25931857D01*
X34139380Y-26027095D01*
X34091761Y-26122333D01*
X34044142Y-26169952D01*
X33948904Y-26217571D01*
X33615571Y-26217571D01*
X34567952Y-26455666D02*
X35044142Y-26455666D01*
X34472714Y-26741380D02*
X34806047Y-25741380D01*
X35139380Y-26741380D01*
X35329857Y-25741380D02*
X35901285Y-25741380D01*
X35615571Y-26741380D02*
X35615571Y-25741380D01*
X36091761Y-25741380D02*
X36663190Y-25741380D01*
X36377476Y-26741380D02*
X36377476Y-25741380D01*
X36996523Y-26360428D02*
X37758428Y-26360428D01*
X17740380Y-59943809D02*
X18549904Y-59943809D01*
X18645142Y-59896190D01*
X18692761Y-59848571D01*
X18740380Y-59753333D01*
X18740380Y-59562857D01*
X18692761Y-59467619D01*
X18645142Y-59420000D01*
X18549904Y-59372380D01*
X17740380Y-59372380D01*
X18740380Y-58896190D02*
X17740380Y-58896190D01*
X17740380Y-58515238D01*
X17788000Y-58420000D01*
X17835619Y-58372380D01*
X17930857Y-58324761D01*
X18073714Y-58324761D01*
X18168952Y-58372380D01*
X18216571Y-58420000D01*
X18264190Y-58515238D01*
X18264190Y-58896190D01*
X18740380Y-57896190D02*
X17740380Y-57896190D01*
X17740380Y-57658095D01*
X17788000Y-57515238D01*
X17883238Y-57420000D01*
X17978476Y-57372380D01*
X18168952Y-57324761D01*
X18311809Y-57324761D01*
X18502285Y-57372380D01*
X18597523Y-57420000D01*
X18692761Y-57515238D01*
X18740380Y-57658095D01*
X18740380Y-57896190D01*
X18740380Y-56896190D02*
X17740380Y-56896190D01*
X21621904Y-59904380D02*
X22240952Y-59904380D01*
X21907619Y-60285333D01*
X22050476Y-60285333D01*
X22145714Y-60332952D01*
X22193333Y-60380571D01*
X22240952Y-60475809D01*
X22240952Y-60713904D01*
X22193333Y-60809142D01*
X22145714Y-60856761D01*
X22050476Y-60904380D01*
X21764761Y-60904380D01*
X21669523Y-60856761D01*
X21621904Y-60809142D01*
X22526666Y-59904380D02*
X22860000Y-60904380D01*
X23193333Y-59904380D01*
X23431428Y-59904380D02*
X24050476Y-59904380D01*
X23717142Y-60285333D01*
X23860000Y-60285333D01*
X23955238Y-60332952D01*
X24002857Y-60380571D01*
X24050476Y-60475809D01*
X24050476Y-60713904D01*
X24002857Y-60809142D01*
X23955238Y-60856761D01*
X23860000Y-60904380D01*
X23574285Y-60904380D01*
X23479047Y-60856761D01*
X23431428Y-60809142D01*
X27440000Y-59181904D02*
X27392380Y-59277142D01*
X27392380Y-59420000D01*
X27440000Y-59562857D01*
X27535238Y-59658095D01*
X27630476Y-59705714D01*
X27820952Y-59753333D01*
X27963809Y-59753333D01*
X28154285Y-59705714D01*
X28249523Y-59658095D01*
X28344761Y-59562857D01*
X28392380Y-59420000D01*
X28392380Y-59324761D01*
X28344761Y-59181904D01*
X28297142Y-59134285D01*
X27963809Y-59134285D01*
X27963809Y-59324761D01*
X28392380Y-58705714D02*
X27392380Y-58705714D01*
X28392380Y-58134285D01*
X27392380Y-58134285D01*
X28392380Y-57658095D02*
X27392380Y-57658095D01*
X27392380Y-57420000D01*
X27440000Y-57277142D01*
X27535238Y-57181904D01*
X27630476Y-57134285D01*
X27820952Y-57086666D01*
X27963809Y-57086666D01*
X28154285Y-57134285D01*
X28249523Y-57181904D01*
X28344761Y-57277142D01*
X28392380Y-57420000D01*
X28392380Y-57658095D01*
D12*
X26984000Y-59750000D02*
X26984000Y-57090000D01*
X21844000Y-59750000D02*
X26984000Y-59750000D01*
X21844000Y-57090000D02*
X26984000Y-57090000D01*
X21844000Y-59750000D02*
X21844000Y-57090000D01*
X20574000Y-59750000D02*
X19244000Y-59750000D01*
X19244000Y-59750000D02*
X19244000Y-58420000D01*
D13*
G36*
X24437123Y-51398304D02*
G01*
X24515059Y-51398924D01*
X24588769Y-51400054D01*
X24655551Y-51401693D01*
X24712703Y-51403837D01*
X24757524Y-51406482D01*
X24787312Y-51409627D01*
X24799241Y-51413091D01*
X24803550Y-51425832D01*
X24810996Y-51456327D01*
X24821115Y-51502332D01*
X24833442Y-51561603D01*
X24847512Y-51631897D01*
X24862863Y-51710968D01*
X24879028Y-51796573D01*
X24882813Y-51816951D01*
X24903804Y-51928854D01*
X24921797Y-52021510D01*
X24936972Y-52095741D01*
X24949509Y-52152370D01*
X24959588Y-52192220D01*
X24967389Y-52216113D01*
X24971787Y-52223992D01*
X24984882Y-52231691D01*
X25013891Y-52245623D01*
X25055830Y-52264547D01*
X25107719Y-52287221D01*
X25166574Y-52312406D01*
X25229414Y-52338860D01*
X25293256Y-52365342D01*
X25355119Y-52390612D01*
X25412020Y-52413428D01*
X25460978Y-52432551D01*
X25499009Y-52446739D01*
X25523133Y-52454751D01*
X25529577Y-52456080D01*
X25540775Y-52450504D01*
X25566816Y-52434595D01*
X25605832Y-52409583D01*
X25655955Y-52376695D01*
X25715318Y-52337162D01*
X25782053Y-52292211D01*
X25854292Y-52243071D01*
X25878107Y-52226771D01*
X25974046Y-52161398D01*
X26054062Y-52107730D01*
X26118629Y-52065467D01*
X26168218Y-52034310D01*
X26203304Y-52013958D01*
X26224357Y-52004113D01*
X26230687Y-52003187D01*
X26242517Y-52011741D01*
X26266301Y-52032817D01*
X26300147Y-52064508D01*
X26342159Y-52104905D01*
X26390446Y-52152103D01*
X26443112Y-52204192D01*
X26498265Y-52259266D01*
X26554010Y-52315418D01*
X26608455Y-52370740D01*
X26659705Y-52423325D01*
X26705867Y-52471265D01*
X26745048Y-52512652D01*
X26775353Y-52545580D01*
X26794890Y-52568142D01*
X26801764Y-52578425D01*
X26796105Y-52589844D01*
X26780110Y-52616051D01*
X26755029Y-52655146D01*
X26722117Y-52705225D01*
X26682624Y-52764387D01*
X26637804Y-52830730D01*
X26588908Y-52902351D01*
X26578244Y-52917878D01*
X26528632Y-52990476D01*
X26482852Y-53058312D01*
X26442157Y-53119468D01*
X26407800Y-53172022D01*
X26381033Y-53214054D01*
X26363110Y-53243644D01*
X26355283Y-53258870D01*
X26355040Y-53260046D01*
X26358996Y-53274267D01*
X26370035Y-53304125D01*
X26386911Y-53346723D01*
X26408379Y-53399162D01*
X26433194Y-53458545D01*
X26460111Y-53521973D01*
X26487884Y-53586549D01*
X26515269Y-53649375D01*
X26541019Y-53707553D01*
X26563890Y-53758185D01*
X26582637Y-53798373D01*
X26596013Y-53825219D01*
X26602290Y-53835444D01*
X26615317Y-53840504D01*
X26646308Y-53848661D01*
X26693213Y-53859476D01*
X26753985Y-53872510D01*
X26826578Y-53887322D01*
X26908943Y-53903474D01*
X26995145Y-53919801D01*
X27080668Y-53935962D01*
X27160158Y-53951413D01*
X27231335Y-53965679D01*
X27291921Y-53978285D01*
X27339637Y-53988755D01*
X27372205Y-53996615D01*
X27387345Y-54001388D01*
X27387904Y-54001748D01*
X27391515Y-54014656D01*
X27394630Y-54045177D01*
X27397247Y-54090609D01*
X27399362Y-54148250D01*
X27400972Y-54215399D01*
X27402075Y-54289355D01*
X27402666Y-54367416D01*
X27402744Y-54446880D01*
X27402305Y-54525046D01*
X27401346Y-54599213D01*
X27399864Y-54666679D01*
X27397857Y-54724742D01*
X27395320Y-54770701D01*
X27392251Y-54801854D01*
X27388820Y-54815302D01*
X27378138Y-54821238D01*
X27353396Y-54829041D01*
X27313558Y-54838939D01*
X27257591Y-54851159D01*
X27184461Y-54865929D01*
X27093132Y-54883478D01*
X27005280Y-54899854D01*
X26920792Y-54915628D01*
X26842427Y-54930621D01*
X26772478Y-54944366D01*
X26713238Y-54956398D01*
X26667002Y-54966251D01*
X26636061Y-54973457D01*
X26622709Y-54977552D01*
X26622542Y-54977668D01*
X26615921Y-54989174D01*
X26603114Y-55016842D01*
X26585246Y-55057875D01*
X26563444Y-55109476D01*
X26538834Y-55168848D01*
X26512542Y-55233194D01*
X26485694Y-55299718D01*
X26459416Y-55365623D01*
X26434834Y-55428112D01*
X26413074Y-55484387D01*
X26395262Y-55531652D01*
X26382524Y-55567111D01*
X26375986Y-55587966D01*
X26375360Y-55591621D01*
X26380938Y-55603511D01*
X26396811Y-55630110D01*
X26421689Y-55669434D01*
X26454281Y-55719499D01*
X26493294Y-55778321D01*
X26537438Y-55843917D01*
X26584415Y-55912835D01*
X26632519Y-55983152D01*
X26677035Y-56048566D01*
X26716635Y-56107096D01*
X26749988Y-56156764D01*
X26775766Y-56195589D01*
X26792639Y-56221593D01*
X26799247Y-56232712D01*
X26793754Y-56243460D01*
X26775410Y-56266336D01*
X26746087Y-56299467D01*
X26707659Y-56340976D01*
X26661997Y-56388990D01*
X26610974Y-56441632D01*
X26556463Y-56497028D01*
X26500337Y-56553303D01*
X26444468Y-56608583D01*
X26390729Y-56660992D01*
X26340994Y-56708654D01*
X26297133Y-56749697D01*
X26261021Y-56782243D01*
X26234530Y-56804420D01*
X26219532Y-56814350D01*
X26217948Y-56814705D01*
X26204219Y-56809111D01*
X26176401Y-56793390D01*
X26137013Y-56769126D01*
X26088574Y-56737900D01*
X26033603Y-56701296D01*
X25989280Y-56671042D01*
X25924983Y-56626787D01*
X25859912Y-56582165D01*
X25797963Y-56539831D01*
X25743028Y-56502447D01*
X25699004Y-56472670D01*
X25682631Y-56461686D01*
X25584263Y-56395981D01*
X25431543Y-56475810D01*
X25375080Y-56505061D01*
X25333749Y-56525628D01*
X25304840Y-56538555D01*
X25285644Y-56544885D01*
X25273452Y-56545663D01*
X25265556Y-56541932D01*
X25263918Y-56540400D01*
X25257310Y-56528305D01*
X25243863Y-56499264D01*
X25224356Y-56455159D01*
X25199567Y-56397870D01*
X25170272Y-56329279D01*
X25137251Y-56251267D01*
X25101281Y-56165714D01*
X25063140Y-56074503D01*
X25023606Y-55979513D01*
X24983457Y-55882627D01*
X24943471Y-55785725D01*
X24904426Y-55690688D01*
X24867099Y-55599397D01*
X24832270Y-55513734D01*
X24800714Y-55435580D01*
X24773212Y-55366816D01*
X24750540Y-55309322D01*
X24733476Y-55264980D01*
X24722799Y-55235671D01*
X24719280Y-55223430D01*
X24725562Y-55208577D01*
X24745630Y-55188871D01*
X24781313Y-55162670D01*
X24803100Y-55148228D01*
X24844208Y-55118760D01*
X24892789Y-55079630D01*
X24942542Y-55036117D01*
X24983971Y-54996711D01*
X25026591Y-54953063D01*
X25058258Y-54917411D01*
X25083099Y-54884125D01*
X25105238Y-54847577D01*
X25128800Y-54802139D01*
X25133365Y-54792880D01*
X25167181Y-54720397D01*
X25191296Y-54658281D01*
X25207250Y-54599970D01*
X25216582Y-54538905D01*
X25220834Y-54468522D01*
X25221595Y-54416960D01*
X25221173Y-54354318D01*
X25218982Y-54306016D01*
X25214401Y-54266103D01*
X25206806Y-54228631D01*
X25198750Y-54198520D01*
X25152961Y-54074261D01*
X25090639Y-53960733D01*
X25013099Y-53859225D01*
X24921650Y-53771024D01*
X24817607Y-53697419D01*
X24702279Y-53639699D01*
X24592280Y-53603010D01*
X24511213Y-53587982D01*
X24419719Y-53581209D01*
X24325731Y-53582685D01*
X24237183Y-53592405D01*
X24185880Y-53603254D01*
X24065863Y-53644847D01*
X23955435Y-53702593D01*
X23855810Y-53774727D01*
X23768205Y-53859487D01*
X23693836Y-53955105D01*
X23633919Y-54059819D01*
X23589671Y-54171863D01*
X23562308Y-54289473D01*
X23553045Y-54410883D01*
X23559768Y-54511724D01*
X23585061Y-54638682D01*
X23626329Y-54755021D01*
X23684365Y-54861995D01*
X23759960Y-54960857D01*
X23853905Y-55052860D01*
X23947120Y-55125435D01*
X23987943Y-55154907D01*
X24022716Y-55181068D01*
X24048023Y-55201272D01*
X24060449Y-55212875D01*
X24060916Y-55213570D01*
X24062288Y-55216139D01*
X24063081Y-55219356D01*
X24062808Y-55224446D01*
X24060985Y-55232633D01*
X24057126Y-55245141D01*
X24050746Y-55263197D01*
X24041360Y-55288023D01*
X24028483Y-55320845D01*
X24011628Y-55362888D01*
X23990311Y-55415376D01*
X23964046Y-55479533D01*
X23932348Y-55556585D01*
X23894732Y-55647755D01*
X23850712Y-55754269D01*
X23799803Y-55877351D01*
X23753519Y-55989224D01*
X23698254Y-56122238D01*
X23650239Y-56236588D01*
X23609352Y-56332550D01*
X23575472Y-56410398D01*
X23548479Y-56470404D01*
X23528252Y-56512844D01*
X23514671Y-56537991D01*
X23508049Y-56546058D01*
X23492195Y-56543460D01*
X23461406Y-56531498D01*
X23418169Y-56511269D01*
X23364968Y-56483868D01*
X23355649Y-56478865D01*
X23306825Y-56453252D01*
X23262880Y-56431564D01*
X23227539Y-56415538D01*
X23204524Y-56406908D01*
X23199165Y-56405901D01*
X23186025Y-56411472D01*
X23158276Y-56427367D01*
X23117970Y-56452273D01*
X23067155Y-56484876D01*
X23007883Y-56523865D01*
X22942202Y-56567926D01*
X22880152Y-56610250D01*
X22810501Y-56657717D01*
X22745444Y-56701285D01*
X22687028Y-56739639D01*
X22637303Y-56771466D01*
X22598318Y-56795453D01*
X22572124Y-56810284D01*
X22561237Y-56814720D01*
X22548030Y-56807862D01*
X22522121Y-56787158D01*
X22483294Y-56752409D01*
X22431338Y-56703418D01*
X22366040Y-56639987D01*
X22287186Y-56561919D01*
X22263030Y-56537791D01*
X22181055Y-56455216D01*
X22113243Y-56385698D01*
X22059735Y-56329388D01*
X22020669Y-56286437D01*
X21996186Y-56256995D01*
X21986426Y-56241212D01*
X21986240Y-56239977D01*
X21991830Y-56227024D01*
X22007737Y-56199421D01*
X22032662Y-56159190D01*
X22065306Y-56108353D01*
X22104372Y-56048934D01*
X22148561Y-55982955D01*
X22194520Y-55915436D01*
X22242401Y-55845071D01*
X22286404Y-55779329D01*
X22325230Y-55720234D01*
X22357583Y-55669807D01*
X22382162Y-55630071D01*
X22397670Y-55603047D01*
X22402819Y-55590950D01*
X22399070Y-55575336D01*
X22388585Y-55543927D01*
X22372522Y-55499620D01*
X22352040Y-55445312D01*
X22328299Y-55383900D01*
X22302458Y-55318281D01*
X22275677Y-55251351D01*
X22249113Y-55186006D01*
X22223928Y-55125144D01*
X22201279Y-55071661D01*
X22182326Y-55028455D01*
X22168229Y-54998420D01*
X22160146Y-54984456D01*
X22160082Y-54984390D01*
X22147304Y-54977852D01*
X22119303Y-54969317D01*
X22075162Y-54958581D01*
X22013962Y-54945440D01*
X21934788Y-54929690D01*
X21836722Y-54911126D01*
X21803360Y-54904956D01*
X21701833Y-54886250D01*
X21618462Y-54870783D01*
X21551417Y-54858099D01*
X21498871Y-54847743D01*
X21458997Y-54839262D01*
X21429967Y-54832201D01*
X21409954Y-54826105D01*
X21397131Y-54820520D01*
X21389669Y-54814992D01*
X21385741Y-54809065D01*
X21383521Y-54802286D01*
X21383023Y-54800421D01*
X21381628Y-54785314D01*
X21380338Y-54752305D01*
X21379191Y-54703812D01*
X21378223Y-54642254D01*
X21377474Y-54570049D01*
X21376980Y-54489616D01*
X21376779Y-54403371D01*
X21376778Y-54401121D01*
X21376911Y-54296835D01*
X21377428Y-54211324D01*
X21378377Y-54143049D01*
X21379809Y-54090469D01*
X21381771Y-54052043D01*
X21384313Y-54026230D01*
X21387485Y-54011489D01*
X21389340Y-54007766D01*
X21398500Y-54002062D01*
X21419185Y-53994945D01*
X21452735Y-53986117D01*
X21500494Y-53975279D01*
X21563801Y-53962132D01*
X21644000Y-53946378D01*
X21742431Y-53927718D01*
X21781854Y-53920368D01*
X21885386Y-53900944D01*
X21970448Y-53884531D01*
X22038608Y-53870778D01*
X22091437Y-53859332D01*
X22130503Y-53849842D01*
X22157375Y-53841954D01*
X22173623Y-53835318D01*
X22179619Y-53831122D01*
X22188678Y-53816518D01*
X22203988Y-53786154D01*
X22224281Y-53742995D01*
X22248290Y-53690008D01*
X22274744Y-53630160D01*
X22302377Y-53566415D01*
X22329921Y-53501741D01*
X22356106Y-53439104D01*
X22379665Y-53381469D01*
X22399330Y-53331804D01*
X22413831Y-53293073D01*
X22421902Y-53268243D01*
X22423140Y-53261576D01*
X22417497Y-53248087D01*
X22401373Y-53219831D01*
X22375963Y-53178668D01*
X22342461Y-53126463D01*
X22302062Y-53065078D01*
X22255960Y-52996376D01*
X22208154Y-52926296D01*
X22159256Y-52854717D01*
X22114001Y-52787625D01*
X22073704Y-52727032D01*
X22039680Y-52674954D01*
X22013245Y-52633404D01*
X21995714Y-52604397D01*
X21988401Y-52589946D01*
X21988323Y-52589618D01*
X21988877Y-52581671D01*
X21994095Y-52570396D01*
X22005203Y-52554439D01*
X22023430Y-52532444D01*
X22050001Y-52503053D01*
X22086145Y-52464913D01*
X22133087Y-52416666D01*
X22192055Y-52356957D01*
X22264276Y-52284431D01*
X22266788Y-52281915D01*
X22343113Y-52205971D01*
X22409468Y-52140972D01*
X22465133Y-52087594D01*
X22509384Y-52046514D01*
X22541499Y-52018406D01*
X22560756Y-52003949D01*
X22565783Y-52002092D01*
X22577455Y-52008578D01*
X22603885Y-52025340D01*
X22643128Y-52051079D01*
X22693238Y-52084497D01*
X22752273Y-52124298D01*
X22818286Y-52169183D01*
X22889333Y-52217854D01*
X22895983Y-52222428D01*
X22967874Y-52271681D01*
X23035337Y-52317504D01*
X23096352Y-52358555D01*
X23148895Y-52393490D01*
X23190946Y-52420964D01*
X23220481Y-52439635D01*
X23235480Y-52448158D01*
X23235920Y-52448335D01*
X23246273Y-52450089D01*
X23261663Y-52448475D01*
X23284207Y-52442767D01*
X23316019Y-52432241D01*
X23359217Y-52416174D01*
X23415918Y-52393841D01*
X23488237Y-52364517D01*
X23525480Y-52349242D01*
X23594531Y-52320857D01*
X23657742Y-52294878D01*
X23712586Y-52272344D01*
X23756538Y-52254292D01*
X23787072Y-52241761D01*
X23801661Y-52235786D01*
X23802247Y-52235548D01*
X23807339Y-52232329D01*
X23812258Y-52225789D01*
X23817399Y-52214165D01*
X23823161Y-52195697D01*
X23829939Y-52168624D01*
X23838130Y-52131184D01*
X23848131Y-52081617D01*
X23860340Y-52018160D01*
X23875152Y-51939053D01*
X23892965Y-51842535D01*
X23902497Y-51790600D01*
X23922206Y-51684546D01*
X23938982Y-51597526D01*
X23953055Y-51528500D01*
X23964652Y-51476428D01*
X23974002Y-51440271D01*
X23981334Y-51418990D01*
X23985678Y-51412140D01*
X24000166Y-51408554D01*
X24032042Y-51405505D01*
X24078602Y-51402990D01*
X24137146Y-51401005D01*
X24204971Y-51399547D01*
X24279377Y-51398613D01*
X24357661Y-51398200D01*
X24437123Y-51398304D01*
G37*
X24437123Y-51398304D02*
X24515059Y-51398924D01*
X24588769Y-51400054D01*
X24655551Y-51401693D01*
X24712703Y-51403837D01*
X24757524Y-51406482D01*
X24787312Y-51409627D01*
X24799241Y-51413091D01*
X24803550Y-51425832D01*
X24810996Y-51456327D01*
X24821115Y-51502332D01*
X24833442Y-51561603D01*
X24847512Y-51631897D01*
X24862863Y-51710968D01*
X24879028Y-51796573D01*
X24882813Y-51816951D01*
X24903804Y-51928854D01*
X24921797Y-52021510D01*
X24936972Y-52095741D01*
X24949509Y-52152370D01*
X24959588Y-52192220D01*
X24967389Y-52216113D01*
X24971787Y-52223992D01*
X24984882Y-52231691D01*
X25013891Y-52245623D01*
X25055830Y-52264547D01*
X25107719Y-52287221D01*
X25166574Y-52312406D01*
X25229414Y-52338860D01*
X25293256Y-52365342D01*
X25355119Y-52390612D01*
X25412020Y-52413428D01*
X25460978Y-52432551D01*
X25499009Y-52446739D01*
X25523133Y-52454751D01*
X25529577Y-52456080D01*
X25540775Y-52450504D01*
X25566816Y-52434595D01*
X25605832Y-52409583D01*
X25655955Y-52376695D01*
X25715318Y-52337162D01*
X25782053Y-52292211D01*
X25854292Y-52243071D01*
X25878107Y-52226771D01*
X25974046Y-52161398D01*
X26054062Y-52107730D01*
X26118629Y-52065467D01*
X26168218Y-52034310D01*
X26203304Y-52013958D01*
X26224357Y-52004113D01*
X26230687Y-52003187D01*
X26242517Y-52011741D01*
X26266301Y-52032817D01*
X26300147Y-52064508D01*
X26342159Y-52104905D01*
X26390446Y-52152103D01*
X26443112Y-52204192D01*
X26498265Y-52259266D01*
X26554010Y-52315418D01*
X26608455Y-52370740D01*
X26659705Y-52423325D01*
X26705867Y-52471265D01*
X26745048Y-52512652D01*
X26775353Y-52545580D01*
X26794890Y-52568142D01*
X26801764Y-52578425D01*
X26796105Y-52589844D01*
X26780110Y-52616051D01*
X26755029Y-52655146D01*
X26722117Y-52705225D01*
X26682624Y-52764387D01*
X26637804Y-52830730D01*
X26588908Y-52902351D01*
X26578244Y-52917878D01*
X26528632Y-52990476D01*
X26482852Y-53058312D01*
X26442157Y-53119468D01*
X26407800Y-53172022D01*
X26381033Y-53214054D01*
X26363110Y-53243644D01*
X26355283Y-53258870D01*
X26355040Y-53260046D01*
X26358996Y-53274267D01*
X26370035Y-53304125D01*
X26386911Y-53346723D01*
X26408379Y-53399162D01*
X26433194Y-53458545D01*
X26460111Y-53521973D01*
X26487884Y-53586549D01*
X26515269Y-53649375D01*
X26541019Y-53707553D01*
X26563890Y-53758185D01*
X26582637Y-53798373D01*
X26596013Y-53825219D01*
X26602290Y-53835444D01*
X26615317Y-53840504D01*
X26646308Y-53848661D01*
X26693213Y-53859476D01*
X26753985Y-53872510D01*
X26826578Y-53887322D01*
X26908943Y-53903474D01*
X26995145Y-53919801D01*
X27080668Y-53935962D01*
X27160158Y-53951413D01*
X27231335Y-53965679D01*
X27291921Y-53978285D01*
X27339637Y-53988755D01*
X27372205Y-53996615D01*
X27387345Y-54001388D01*
X27387904Y-54001748D01*
X27391515Y-54014656D01*
X27394630Y-54045177D01*
X27397247Y-54090609D01*
X27399362Y-54148250D01*
X27400972Y-54215399D01*
X27402075Y-54289355D01*
X27402666Y-54367416D01*
X27402744Y-54446880D01*
X27402305Y-54525046D01*
X27401346Y-54599213D01*
X27399864Y-54666679D01*
X27397857Y-54724742D01*
X27395320Y-54770701D01*
X27392251Y-54801854D01*
X27388820Y-54815302D01*
X27378138Y-54821238D01*
X27353396Y-54829041D01*
X27313558Y-54838939D01*
X27257591Y-54851159D01*
X27184461Y-54865929D01*
X27093132Y-54883478D01*
X27005280Y-54899854D01*
X26920792Y-54915628D01*
X26842427Y-54930621D01*
X26772478Y-54944366D01*
X26713238Y-54956398D01*
X26667002Y-54966251D01*
X26636061Y-54973457D01*
X26622709Y-54977552D01*
X26622542Y-54977668D01*
X26615921Y-54989174D01*
X26603114Y-55016842D01*
X26585246Y-55057875D01*
X26563444Y-55109476D01*
X26538834Y-55168848D01*
X26512542Y-55233194D01*
X26485694Y-55299718D01*
X26459416Y-55365623D01*
X26434834Y-55428112D01*
X26413074Y-55484387D01*
X26395262Y-55531652D01*
X26382524Y-55567111D01*
X26375986Y-55587966D01*
X26375360Y-55591621D01*
X26380938Y-55603511D01*
X26396811Y-55630110D01*
X26421689Y-55669434D01*
X26454281Y-55719499D01*
X26493294Y-55778321D01*
X26537438Y-55843917D01*
X26584415Y-55912835D01*
X26632519Y-55983152D01*
X26677035Y-56048566D01*
X26716635Y-56107096D01*
X26749988Y-56156764D01*
X26775766Y-56195589D01*
X26792639Y-56221593D01*
X26799247Y-56232712D01*
X26793754Y-56243460D01*
X26775410Y-56266336D01*
X26746087Y-56299467D01*
X26707659Y-56340976D01*
X26661997Y-56388990D01*
X26610974Y-56441632D01*
X26556463Y-56497028D01*
X26500337Y-56553303D01*
X26444468Y-56608583D01*
X26390729Y-56660992D01*
X26340994Y-56708654D01*
X26297133Y-56749697D01*
X26261021Y-56782243D01*
X26234530Y-56804420D01*
X26219532Y-56814350D01*
X26217948Y-56814705D01*
X26204219Y-56809111D01*
X26176401Y-56793390D01*
X26137013Y-56769126D01*
X26088574Y-56737900D01*
X26033603Y-56701296D01*
X25989280Y-56671042D01*
X25924983Y-56626787D01*
X25859912Y-56582165D01*
X25797963Y-56539831D01*
X25743028Y-56502447D01*
X25699004Y-56472670D01*
X25682631Y-56461686D01*
X25584263Y-56395981D01*
X25431543Y-56475810D01*
X25375080Y-56505061D01*
X25333749Y-56525628D01*
X25304840Y-56538555D01*
X25285644Y-56544885D01*
X25273452Y-56545663D01*
X25265556Y-56541932D01*
X25263918Y-56540400D01*
X25257310Y-56528305D01*
X25243863Y-56499264D01*
X25224356Y-56455159D01*
X25199567Y-56397870D01*
X25170272Y-56329279D01*
X25137251Y-56251267D01*
X25101281Y-56165714D01*
X25063140Y-56074503D01*
X25023606Y-55979513D01*
X24983457Y-55882627D01*
X24943471Y-55785725D01*
X24904426Y-55690688D01*
X24867099Y-55599397D01*
X24832270Y-55513734D01*
X24800714Y-55435580D01*
X24773212Y-55366816D01*
X24750540Y-55309322D01*
X24733476Y-55264980D01*
X24722799Y-55235671D01*
X24719280Y-55223430D01*
X24725562Y-55208577D01*
X24745630Y-55188871D01*
X24781313Y-55162670D01*
X24803100Y-55148228D01*
X24844208Y-55118760D01*
X24892789Y-55079630D01*
X24942542Y-55036117D01*
X24983971Y-54996711D01*
X25026591Y-54953063D01*
X25058258Y-54917411D01*
X25083099Y-54884125D01*
X25105238Y-54847577D01*
X25128800Y-54802139D01*
X25133365Y-54792880D01*
X25167181Y-54720397D01*
X25191296Y-54658281D01*
X25207250Y-54599970D01*
X25216582Y-54538905D01*
X25220834Y-54468522D01*
X25221595Y-54416960D01*
X25221173Y-54354318D01*
X25218982Y-54306016D01*
X25214401Y-54266103D01*
X25206806Y-54228631D01*
X25198750Y-54198520D01*
X25152961Y-54074261D01*
X25090639Y-53960733D01*
X25013099Y-53859225D01*
X24921650Y-53771024D01*
X24817607Y-53697419D01*
X24702279Y-53639699D01*
X24592280Y-53603010D01*
X24511213Y-53587982D01*
X24419719Y-53581209D01*
X24325731Y-53582685D01*
X24237183Y-53592405D01*
X24185880Y-53603254D01*
X24065863Y-53644847D01*
X23955435Y-53702593D01*
X23855810Y-53774727D01*
X23768205Y-53859487D01*
X23693836Y-53955105D01*
X23633919Y-54059819D01*
X23589671Y-54171863D01*
X23562308Y-54289473D01*
X23553045Y-54410883D01*
X23559768Y-54511724D01*
X23585061Y-54638682D01*
X23626329Y-54755021D01*
X23684365Y-54861995D01*
X23759960Y-54960857D01*
X23853905Y-55052860D01*
X23947120Y-55125435D01*
X23987943Y-55154907D01*
X24022716Y-55181068D01*
X24048023Y-55201272D01*
X24060449Y-55212875D01*
X24060916Y-55213570D01*
X24062288Y-55216139D01*
X24063081Y-55219356D01*
X24062808Y-55224446D01*
X24060985Y-55232633D01*
X24057126Y-55245141D01*
X24050746Y-55263197D01*
X24041360Y-55288023D01*
X24028483Y-55320845D01*
X24011628Y-55362888D01*
X23990311Y-55415376D01*
X23964046Y-55479533D01*
X23932348Y-55556585D01*
X23894732Y-55647755D01*
X23850712Y-55754269D01*
X23799803Y-55877351D01*
X23753519Y-55989224D01*
X23698254Y-56122238D01*
X23650239Y-56236588D01*
X23609352Y-56332550D01*
X23575472Y-56410398D01*
X23548479Y-56470404D01*
X23528252Y-56512844D01*
X23514671Y-56537991D01*
X23508049Y-56546058D01*
X23492195Y-56543460D01*
X23461406Y-56531498D01*
X23418169Y-56511269D01*
X23364968Y-56483868D01*
X23355649Y-56478865D01*
X23306825Y-56453252D01*
X23262880Y-56431564D01*
X23227539Y-56415538D01*
X23204524Y-56406908D01*
X23199165Y-56405901D01*
X23186025Y-56411472D01*
X23158276Y-56427367D01*
X23117970Y-56452273D01*
X23067155Y-56484876D01*
X23007883Y-56523865D01*
X22942202Y-56567926D01*
X22880152Y-56610250D01*
X22810501Y-56657717D01*
X22745444Y-56701285D01*
X22687028Y-56739639D01*
X22637303Y-56771466D01*
X22598318Y-56795453D01*
X22572124Y-56810284D01*
X22561237Y-56814720D01*
X22548030Y-56807862D01*
X22522121Y-56787158D01*
X22483294Y-56752409D01*
X22431338Y-56703418D01*
X22366040Y-56639987D01*
X22287186Y-56561919D01*
X22263030Y-56537791D01*
X22181055Y-56455216D01*
X22113243Y-56385698D01*
X22059735Y-56329388D01*
X22020669Y-56286437D01*
X21996186Y-56256995D01*
X21986426Y-56241212D01*
X21986240Y-56239977D01*
X21991830Y-56227024D01*
X22007737Y-56199421D01*
X22032662Y-56159190D01*
X22065306Y-56108353D01*
X22104372Y-56048934D01*
X22148561Y-55982955D01*
X22194520Y-55915436D01*
X22242401Y-55845071D01*
X22286404Y-55779329D01*
X22325230Y-55720234D01*
X22357583Y-55669807D01*
X22382162Y-55630071D01*
X22397670Y-55603047D01*
X22402819Y-55590950D01*
X22399070Y-55575336D01*
X22388585Y-55543927D01*
X22372522Y-55499620D01*
X22352040Y-55445312D01*
X22328299Y-55383900D01*
X22302458Y-55318281D01*
X22275677Y-55251351D01*
X22249113Y-55186006D01*
X22223928Y-55125144D01*
X22201279Y-55071661D01*
X22182326Y-55028455D01*
X22168229Y-54998420D01*
X22160146Y-54984456D01*
X22160082Y-54984390D01*
X22147304Y-54977852D01*
X22119303Y-54969317D01*
X22075162Y-54958581D01*
X22013962Y-54945440D01*
X21934788Y-54929690D01*
X21836722Y-54911126D01*
X21803360Y-54904956D01*
X21701833Y-54886250D01*
X21618462Y-54870783D01*
X21551417Y-54858099D01*
X21498871Y-54847743D01*
X21458997Y-54839262D01*
X21429967Y-54832201D01*
X21409954Y-54826105D01*
X21397131Y-54820520D01*
X21389669Y-54814992D01*
X21385741Y-54809065D01*
X21383521Y-54802286D01*
X21383023Y-54800421D01*
X21381628Y-54785314D01*
X21380338Y-54752305D01*
X21379191Y-54703812D01*
X21378223Y-54642254D01*
X21377474Y-54570049D01*
X21376980Y-54489616D01*
X21376779Y-54403371D01*
X21376778Y-54401121D01*
X21376911Y-54296835D01*
X21377428Y-54211324D01*
X21378377Y-54143049D01*
X21379809Y-54090469D01*
X21381771Y-54052043D01*
X21384313Y-54026230D01*
X21387485Y-54011489D01*
X21389340Y-54007766D01*
X21398500Y-54002062D01*
X21419185Y-53994945D01*
X21452735Y-53986117D01*
X21500494Y-53975279D01*
X21563801Y-53962132D01*
X21644000Y-53946378D01*
X21742431Y-53927718D01*
X21781854Y-53920368D01*
X21885386Y-53900944D01*
X21970448Y-53884531D01*
X22038608Y-53870778D01*
X22091437Y-53859332D01*
X22130503Y-53849842D01*
X22157375Y-53841954D01*
X22173623Y-53835318D01*
X22179619Y-53831122D01*
X22188678Y-53816518D01*
X22203988Y-53786154D01*
X22224281Y-53742995D01*
X22248290Y-53690008D01*
X22274744Y-53630160D01*
X22302377Y-53566415D01*
X22329921Y-53501741D01*
X22356106Y-53439104D01*
X22379665Y-53381469D01*
X22399330Y-53331804D01*
X22413831Y-53293073D01*
X22421902Y-53268243D01*
X22423140Y-53261576D01*
X22417497Y-53248087D01*
X22401373Y-53219831D01*
X22375963Y-53178668D01*
X22342461Y-53126463D01*
X22302062Y-53065078D01*
X22255960Y-52996376D01*
X22208154Y-52926296D01*
X22159256Y-52854717D01*
X22114001Y-52787625D01*
X22073704Y-52727032D01*
X22039680Y-52674954D01*
X22013245Y-52633404D01*
X21995714Y-52604397D01*
X21988401Y-52589946D01*
X21988323Y-52589618D01*
X21988877Y-52581671D01*
X21994095Y-52570396D01*
X22005203Y-52554439D01*
X22023430Y-52532444D01*
X22050001Y-52503053D01*
X22086145Y-52464913D01*
X22133087Y-52416666D01*
X22192055Y-52356957D01*
X22264276Y-52284431D01*
X22266788Y-52281915D01*
X22343113Y-52205971D01*
X22409468Y-52140972D01*
X22465133Y-52087594D01*
X22509384Y-52046514D01*
X22541499Y-52018406D01*
X22560756Y-52003949D01*
X22565783Y-52002092D01*
X22577455Y-52008578D01*
X22603885Y-52025340D01*
X22643128Y-52051079D01*
X22693238Y-52084497D01*
X22752273Y-52124298D01*
X22818286Y-52169183D01*
X22889333Y-52217854D01*
X22895983Y-52222428D01*
X22967874Y-52271681D01*
X23035337Y-52317504D01*
X23096352Y-52358555D01*
X23148895Y-52393490D01*
X23190946Y-52420964D01*
X23220481Y-52439635D01*
X23235480Y-52448158D01*
X23235920Y-52448335D01*
X23246273Y-52450089D01*
X23261663Y-52448475D01*
X23284207Y-52442767D01*
X23316019Y-52432241D01*
X23359217Y-52416174D01*
X23415918Y-52393841D01*
X23488237Y-52364517D01*
X23525480Y-52349242D01*
X23594531Y-52320857D01*
X23657742Y-52294878D01*
X23712586Y-52272344D01*
X23756538Y-52254292D01*
X23787072Y-52241761D01*
X23801661Y-52235786D01*
X23802247Y-52235548D01*
X23807339Y-52232329D01*
X23812258Y-52225789D01*
X23817399Y-52214165D01*
X23823161Y-52195697D01*
X23829939Y-52168624D01*
X23838130Y-52131184D01*
X23848131Y-52081617D01*
X23860340Y-52018160D01*
X23875152Y-51939053D01*
X23892965Y-51842535D01*
X23902497Y-51790600D01*
X23922206Y-51684546D01*
X23938982Y-51597526D01*
X23953055Y-51528500D01*
X23964652Y-51476428D01*
X23974002Y-51440271D01*
X23981334Y-51418990D01*
X23985678Y-51412140D01*
X24000166Y-51408554D01*
X24032042Y-51405505D01*
X24078602Y-51402990D01*
X24137146Y-51401005D01*
X24204971Y-51399547D01*
X24279377Y-51398613D01*
X24357661Y-51398200D01*
X24437123Y-51398304D01*
D14*
X16118800Y-34776560D02*
X16118800Y-35176560D01*
X36218800Y-34776560D02*
X36218800Y-35176560D01*
X35718800Y-34776560D02*
X36218800Y-34776560D01*
X36218800Y-50776560D02*
X36218800Y-51176560D01*
X35718800Y-51176560D02*
X36218800Y-51176560D01*
X16118800Y-50776560D02*
X16118800Y-51176560D01*
X16118800Y-51176560D02*
X16618800Y-51176560D01*
X16118800Y-34776560D02*
X26118800Y-34776560D01*
D12*
X17476716Y-54793560D02*
X18680844Y-54793560D01*
X17476716Y-52973560D02*
X18680844Y-52973560D01*
X30517244Y-27111280D02*
X29313116Y-27111280D01*
X30517244Y-28931280D02*
X29313116Y-28931280D01*
X24267320Y-30469840D02*
X24267320Y-27019840D01*
X24267320Y-30469840D02*
X24267320Y-32419840D01*
X15397320Y-30469840D02*
X15397320Y-28519840D01*
X15397320Y-30469840D02*
X15397320Y-32419840D01*
X30112240Y-34071680D02*
X28652240Y-34071680D01*
X30112240Y-30911680D02*
X27952240Y-30911680D01*
X30112240Y-30911680D02*
X30112240Y-31841680D01*
X30112240Y-34071680D02*
X30112240Y-33141680D01*
X33213720Y-32398724D02*
X33213720Y-31194596D01*
X31393720Y-32398724D02*
X31393720Y-31194596D01*
X24749080Y-30229396D02*
X24749080Y-31433524D01*
X26569080Y-30229396D02*
X26569080Y-31433524D01*
D15*
X32846814Y-50719159D02*
X32846814Y-51433675D01*
X32799179Y-51576578D01*
X32703910Y-51671847D01*
X32561007Y-51719482D01*
X32465738Y-51719482D01*
X33799502Y-50719159D02*
X33323158Y-50719159D01*
X33275523Y-51195503D01*
X33323158Y-51147868D01*
X33418427Y-51100234D01*
X33656599Y-51100234D01*
X33751868Y-51147868D01*
X33799502Y-51195503D01*
X33847137Y-51290772D01*
X33847137Y-51528944D01*
X33799502Y-51624213D01*
X33751868Y-51671847D01*
X33656599Y-51719482D01*
X33418427Y-51719482D01*
X33323158Y-51671847D01*
X33275523Y-51624213D01*
D16*
X37647571Y-33869095D02*
X37695190Y-33726238D01*
X37742809Y-33678619D01*
X37838047Y-33631000D01*
X37980904Y-33631000D01*
X38076142Y-33678619D01*
X38123761Y-33726238D01*
X38171380Y-33821476D01*
X38171380Y-34202428D01*
X37171380Y-34202428D01*
X37171380Y-33869095D01*
X37219000Y-33773857D01*
X37266619Y-33726238D01*
X37361857Y-33678619D01*
X37457095Y-33678619D01*
X37552333Y-33726238D01*
X37599952Y-33773857D01*
X37647571Y-33869095D01*
X37647571Y-34202428D01*
X37885666Y-33250047D02*
X37885666Y-32773857D01*
X38171380Y-33345285D02*
X37171380Y-33011952D01*
X38171380Y-32678619D01*
X37171380Y-32488142D02*
X37171380Y-31916714D01*
X38171380Y-32202428D02*
X37171380Y-32202428D01*
X37171380Y-31726238D02*
X37171380Y-31154809D01*
X38171380Y-31440523D02*
X37171380Y-31440523D01*
X37790428Y-30821476D02*
X37790428Y-30059571D01*
X38171380Y-30440523D02*
X37409476Y-30440523D01*
X19304095Y-36028380D02*
X19304095Y-36837904D01*
X19351714Y-36933142D01*
X19399333Y-36980761D01*
X19494571Y-37028380D01*
X19685047Y-37028380D01*
X19780285Y-36980761D01*
X19827904Y-36933142D01*
X19875523Y-36837904D01*
X19875523Y-36028380D01*
X20304095Y-36123619D02*
X20351714Y-36076000D01*
X20446952Y-36028380D01*
X20685047Y-36028380D01*
X20780285Y-36076000D01*
X20827904Y-36123619D01*
X20875523Y-36218857D01*
X20875523Y-36314095D01*
X20827904Y-36456952D01*
X20256476Y-37028380D01*
X20875523Y-37028380D01*
X15216142Y-54141666D02*
X15263761Y-54189285D01*
X15311380Y-54332142D01*
X15311380Y-54427380D01*
X15263761Y-54570238D01*
X15168523Y-54665476D01*
X15073285Y-54713095D01*
X14882809Y-54760714D01*
X14739952Y-54760714D01*
X14549476Y-54713095D01*
X14454238Y-54665476D01*
X14359000Y-54570238D01*
X14311380Y-54427380D01*
X14311380Y-54332142D01*
X14359000Y-54189285D01*
X14406619Y-54141666D01*
X14406619Y-53760714D02*
X14359000Y-53713095D01*
X14311380Y-53617857D01*
X14311380Y-53379761D01*
X14359000Y-53284523D01*
X14406619Y-53236904D01*
X14501857Y-53189285D01*
X14597095Y-53189285D01*
X14739952Y-53236904D01*
X15311380Y-53808333D01*
X15311380Y-53189285D01*
X29790093Y-26432782D02*
X29742474Y-26480401D01*
X29599617Y-26528020D01*
X29504379Y-26528020D01*
X29361521Y-26480401D01*
X29266283Y-26385163D01*
X29218664Y-26289925D01*
X29171045Y-26099449D01*
X29171045Y-25956592D01*
X29218664Y-25766116D01*
X29266283Y-25670878D01*
X29361521Y-25575640D01*
X29504379Y-25528020D01*
X29599617Y-25528020D01*
X29742474Y-25575640D01*
X29790093Y-25623259D01*
X30123426Y-25528020D02*
X30742474Y-25528020D01*
X30409140Y-25908973D01*
X30551998Y-25908973D01*
X30647236Y-25956592D01*
X30694855Y-26004211D01*
X30742474Y-26099449D01*
X30742474Y-26337544D01*
X30694855Y-26432782D01*
X30647236Y-26480401D01*
X30551998Y-26528020D01*
X30266283Y-26528020D01*
X30171045Y-26480401D01*
X30123426Y-26432782D01*
X17054580Y-31145384D02*
X17864104Y-31145384D01*
X17959342Y-31097765D01*
X18006961Y-31050146D01*
X18054580Y-30954908D01*
X18054580Y-30764432D01*
X18006961Y-30669194D01*
X17959342Y-30621575D01*
X17864104Y-30573956D01*
X17054580Y-30573956D01*
X18054580Y-29573956D02*
X18054580Y-30145384D01*
X18054580Y-29859670D02*
X17054580Y-29859670D01*
X17197438Y-29954908D01*
X17292676Y-30050146D01*
X17340295Y-30145384D01*
X29133895Y-29475180D02*
X29133895Y-30284704D01*
X29181514Y-30379942D01*
X29229133Y-30427561D01*
X29324371Y-30475180D01*
X29514847Y-30475180D01*
X29610085Y-30427561D01*
X29657704Y-30379942D01*
X29705323Y-30284704D01*
X29705323Y-29475180D01*
X30086276Y-29475180D02*
X30705323Y-29475180D01*
X30371990Y-29856133D01*
X30514847Y-29856133D01*
X30610085Y-29903752D01*
X30657704Y-29951371D01*
X30705323Y-30046609D01*
X30705323Y-30284704D01*
X30657704Y-30379942D01*
X30610085Y-30427561D01*
X30514847Y-30475180D01*
X30229133Y-30475180D01*
X30133895Y-30427561D01*
X30086276Y-30379942D01*
X32111653Y-35465022D02*
X32064034Y-35512641D01*
X31921177Y-35560260D01*
X31825939Y-35560260D01*
X31683081Y-35512641D01*
X31587843Y-35417403D01*
X31540224Y-35322165D01*
X31492605Y-35131689D01*
X31492605Y-34988832D01*
X31540224Y-34798356D01*
X31587843Y-34703118D01*
X31683081Y-34607880D01*
X31825939Y-34560260D01*
X31921177Y-34560260D01*
X32064034Y-34607880D01*
X32111653Y-34655499D01*
X32968796Y-34893594D02*
X32968796Y-35560260D01*
X32730700Y-34512641D02*
X32492605Y-35226927D01*
X33111653Y-35226927D01*
X26097502Y-27380226D02*
X26145121Y-27427845D01*
X26192740Y-27570702D01*
X26192740Y-27665940D01*
X26145121Y-27808798D01*
X26049883Y-27904036D01*
X25954645Y-27951655D01*
X25764169Y-27999274D01*
X25621312Y-27999274D01*
X25430836Y-27951655D01*
X25335598Y-27904036D01*
X25240360Y-27808798D01*
X25192740Y-27665940D01*
X25192740Y-27570702D01*
X25240360Y-27427845D01*
X25287979Y-27380226D01*
X26192740Y-26427845D02*
X26192740Y-26999274D01*
X26192740Y-26713560D02*
X25192740Y-26713560D01*
X25335598Y-26808798D01*
X25430836Y-26904036D01*
X25478455Y-26999274D01*
M02*
